<svg width="215" height="54" fill="none" xmlns="http://www.w3.org/2000/svg"><path d="M64.129 2.82c4.714 0 6.951 2.17 6.951 6.952v7.295c0 4.782-2.228 6.947-6.951 6.947h-8.325v2.825h-7.09v-2.825h-8.328c-4.71 0-6.965-2.179-6.965-6.947V9.772c0-4.781 2.228-6.951 6.947-6.951h8.329V0h7.09v2.82h8.342zM48.715 18.516V8.33h-5.437c-1.653 0-2.201.548-2.201 2.205v5.793c0 1.654.548 2.206 2.201 2.206l5.437-.018zm14.705-7.98c0-1.658-.58-2.206-2.201-2.206h-5.415v10.186h5.433c1.622 0 2.2-.552 2.2-2.206l-.017-5.775zm17.334 14.926c-4.714 0-6.947-2.17-6.947-6.951V8.329c0-4.782 2.228-6.952 6.947-6.952h15.552c4.719 0 6.952 2.17 6.952 6.952V18.51c0 4.781-2.228 6.951-6.952 6.951H80.754zm12.66-6.3c1.618 0 2.228-.553 2.228-2.202V9.875c0-1.653-.588-2.197-2.228-2.197h-9.768c-1.653 0-2.228.544-2.228 2.197v7.09c0 1.648.553 2.2 2.228 2.2l9.768-.003zm12.847 6.3V1.4h21.466c4.407 0 6.265 1.858 6.265 6.261v4.679c0 4.407-1.858 6.265-6.265 6.265h-13.814v6.858h-7.652zm7.638-12.348h10.593c1.408 0 1.858-.445 1.858-1.862V8.979c0-1.413-.446-1.858-1.858-1.858h-10.593v5.993zm48.969-11.737h6.435v24.085h-7.197V12.286l-7.224 9.424h-3.992l-7.224-9.424v13.176h-7.192V1.377h6.742l9.808 13.039 9.844-13.04z" fill="#2B2A29"/><path d="M208.428 1.377h6.434v24.085h-7.192V12.286l-7.223 9.424h-3.993l-7.224-9.424v13.176h-7.187V1.377h6.737l9.808 13.039 9.84-13.04zm-29.576 8.863h-6.368v6.368h6.368V10.24z" fill="#EC692C"/><path d="M27.067 0h-6.368v6.372h6.368V0zm0 10.24h-6.368v6.368h6.368V10.24zm0 10.232h-6.368v6.367h6.368v-6.367zM16.782 0h-6.368v6.372h6.368V0zm0 10.24h-6.368v6.368h6.368V10.24zm0 10.232h-6.368v6.367h6.368v-6.367z" fill="#2B2A29"/><path d="M6.498 0H.125v6.372h6.373V0zm-.001 10.24H.125v6.368h6.372V10.24zm0 10.232H.125v6.367h6.372v-6.367z" fill="#EC692C"/><path d="M6.566 41.263l-2.449 4.726-2.38-4.726h-1.6l3.208 6.003-.126.195c-.334.53-.725.748-1.196.748-.242 0-.494-.058-.782-.15l-.368 1.173a3.01 3.01 0 001.184.253c.978 0 1.864-.552 2.485-1.725l3.496-6.497H6.566zm9.4-.115c-2.138 0-3.794 1.403-4.116 3.415h-1.288v-3.3H9.09v8.05h1.472v-3.416h1.265c.276 2.07 1.955 3.53 4.14 3.53 2.392 0 4.163-1.747 4.163-4.14 0-2.391-1.771-4.14-4.163-4.14zm0 6.969c-1.494 0-2.656-1.15-2.656-2.83 0-1.678 1.162-2.828 2.657-2.828 1.506 0 2.656 1.15 2.656 2.829 0 1.679-1.15 2.829-2.656 2.829zm11.566-6.854h-6.808v1.265h2.657v6.785h1.483v-6.785h2.668v-1.265zm4.48 8.05h1.39l4.325-5.704v5.704h1.472v-8.05h-1.392l-4.324 5.715v-5.715h-1.472v8.05zm17.946 0h1.69l-2.851-4.152 2.748-3.898h-1.587l-2.311 3.37h-1.541v-3.37h-1.472v8.05h1.472V45.92H47.6l2.357 3.393zm6.41.115c2.495 0 4.335-1.748 4.335-4.14 0-2.392-1.84-4.14-4.336-4.14-2.495 0-4.335 1.76-4.335 4.14s1.84 4.14 4.335 4.14zm0-1.311c-1.622 0-2.83-1.185-2.83-2.83 0-1.644 1.208-2.828 2.83-2.828 1.62 0 2.828 1.184 2.828 2.829 0 1.644-1.207 2.829-2.829 2.829zm14.808 1.196l-.023-8.05h-1.219l-3.151 5.324-3.186-5.324h-1.23v8.05h1.415v-5.267l2.645 4.347h.666l2.645-4.416.012 5.336h1.426zm11.453-4.037c0-2.116-1.53-3.38-4.244-3.519v-.816h-1.38v.816c-2.714.138-4.255 1.392-4.255 3.52 0 2.115 1.541 3.369 4.255 3.507v.85h1.38v-.85c2.714-.115 4.244-1.392 4.244-3.508zm-4.244 2.335v-4.67c1.817.127 2.806.91 2.806 2.324 0 1.414-.966 2.208-2.806 2.346zm-4.174-2.335c0-1.426.943-2.196 2.794-2.334v4.669c-1.782-.15-2.794-.92-2.794-2.335zm13.714 4.152c2.495 0 4.335-1.748 4.335-4.14 0-2.392-1.84-4.14-4.335-4.14-2.496 0-4.336 1.76-4.336 4.14s1.84 4.14 4.336 4.14zm0-1.311c-1.622 0-2.83-1.185-2.83-2.83 0-1.644 1.208-2.828 2.83-2.828 1.621 0 2.829 1.184 2.829 2.829 0 1.644-1.208 2.829-2.83 2.829zm9.3-6.854h-3.312v8.05h1.495V46.99h1.817c2.116 0 3.427-1.093 3.427-2.864 0-1.782-1.31-2.863-3.427-2.863zm-.069 4.462h-1.748v-3.197h1.748c1.311 0 1.99.586 1.99 1.598s-.679 1.599-1.99 1.599zm10.517-4.462h-6.808v1.265h2.656v6.785h1.484v-6.785h2.668v-1.265zm9.769 3.864c.747-.322 1.184-.932 1.184-1.794 0-1.334-1.081-2.07-2.875-2.07h-3.599v8.05h3.818c2.001 0 3.047-.84 3.047-2.231 0-1.012-.563-1.68-1.575-1.955zm-3.818-2.714h2.001c.966 0 1.483.39 1.483 1.15 0 .747-.517 1.138-1.483 1.138h-2.001v-2.288zm2.3 5.75h-2.3v-2.37h2.3c1.035 0 1.587.369 1.587 1.174 0 .805-.552 1.196-1.587 1.196zm13.617 1.15l-.023-8.05h-1.219l-3.151 5.324-3.186-5.324h-1.23v8.05h1.414v-5.267l2.645 4.347h.667l2.645-4.416.012 5.336h1.426zm3.748-1.254v-2.22h3.887v-1.23h-3.887v-2.093h4.381v-1.253h-5.876v8.05h6.037v-1.254h-4.542zm9.878 1.369c1.322 0 2.449-.472 3.197-1.346l-.966-.92c-.587.644-1.311.955-2.151.955-1.667 0-2.875-1.173-2.875-2.83 0-1.655 1.208-2.828 2.875-2.828.84 0 1.564.31 2.151.943l.966-.909c-.748-.874-1.875-1.345-3.186-1.345-2.472 0-4.312 1.736-4.312 4.14 0 2.403 1.84 4.14 4.301 4.14zm10.337-8.165h-6.808v1.265h2.657v6.785h1.483v-6.785h2.668v-1.265zm2.785 6.796v-2.22h3.887v-1.23h-3.887v-2.093h4.381v-1.253h-5.876v8.05h6.037v-1.254h-4.542zm13.09 1.369c1.322 0 2.449-.472 3.197-1.346l-.966-.92c-.587.644-1.311.955-2.151.955-1.667 0-2.875-1.173-2.875-2.83 0-1.655 1.208-2.828 2.875-2.828.84 0 1.564.31 2.151.943l.966-.909c-.748-.874-1.875-1.345-3.186-1.345-2.472 0-4.312 1.736-4.312 4.14 0 2.403 1.84 4.14 4.301 4.14zm13.421-8.165v3.323h-4.163v-3.323h-1.495v8.05h1.495v-3.45h4.163v3.45h1.495v-8.05H182.8zm9.894 8.05h1.564l-3.634-8.05h-1.472l-3.622 8.05h1.541l.793-1.863h4.025l.805 1.863zm-4.324-3.036l1.507-3.52 1.518 3.52h-3.025zm15.943 3.036l-.023-8.05h-1.219l-3.151 5.324-3.185-5.324h-1.231v8.05h1.415v-5.267l2.645 4.347h.667l2.645-4.416.011 5.336h1.426zm2.264 0h1.392l4.324-5.704v5.704h1.472v-8.05h-1.392l-4.324 5.715v-5.715h-1.472v8.05z" fill="#2B2A29"/></svg>