<svg width="35" height="35" fill="none" xmlns="http://www.w3.org/2000/svg"><path fill-rule="evenodd" clip-rule="evenodd" d="M18.077 1.127v32.74h15.81V1.126h-15.81zm2.261 30.479h11.268v-3.388H20.338v3.388zm11.852 1.126H19.775a.563.563 0 01-.564-.563v-4.514a.563.563 0 01.564-.563H32.19a.564.564 0 01.57.563v4.514a.56.56 0 01-.57.563zm-11.852-7.901h11.268v-3.366H20.338v3.366zm11.852 1.127H19.775a.563.563 0 01-.564-.564V20.88a.563.563 0 01.564-.563H32.19a.564.564 0 01.57.563v4.514a.56.56 0 01-.57.564zm-11.852-7.902h11.268V3.38H20.338v14.676zM32.19 19.19H19.775a.563.563 0 01-.564-.57V2.817a.563.563 0 01.564-.563H32.19a.564.564 0 01.57.563v15.83a.57.57 0 01-.57.543zM21.465 8.465h1.134v4.55h-1.134v-4.55zm3.387 14.084h2.26v1.127h-2.26V22.55zm0 6.768h2.26v1.134h-2.26v-1.134zM10.768 9V7.866h-3.38V9h3.38zm.57 1.127H5.359A1.36 1.36 0 004 11.493v2.021h1.69a.564.564 0 01.564.564v5.084h5.633v-5.084a.564.564 0 01.564-.564h1.69v-2.021a1.358 1.358 0 00-.395-.965 1.408 1.408 0 00-.964-.401h-1.444zM1.176 4.493h15.803V3.366H1.148l.028 1.127zm0-2.254h15.803V1.113H1.148l.028 1.126zM5.099 27.1a.564.564 0 000 1.126H13a.564.564 0 000-1.126H5.099zM13 29.352H1.148v4.521H16.95v-4.52H13zm-7.901-4.514a.563.563 0 100 1.127H13a.563.563 0 100-1.127H5.099zm-1.261 1.697a1.69 1.69 0 011.26-2.817H13a1.69 1.69 0 011.26 2.817 1.669 1.669 0 01.339 1.69h2.352V5.641H9.613v1.127h1.697a.563.563 0 01.563.563v1.697h.895a2.486 2.486 0 012.492 2.493v2.585a.564.564 0 01-.563.563H13v5.085a.564.564 0 01-.563.563H5.662a.562.562 0 01-.563-.563v-5.085H3.387a.564.564 0 01-.563-.563V11.52a2.485 2.485 0 012.493-2.493h.887V7.331a.563.563 0 01.564-.563h1.697V5.64H1.148v22.577H3.5a1.669 1.669 0 01.338-1.69v.007zm4.085 3.95h2.253v1.128H7.923v-1.127zM34.45 35H.57a.562.562 0 01-.57-.563V.563A.563.563 0 01.57 0h33.867A.564.564 0 0135 .563v33.874a.563.563 0 01-.55.556V35z" fill="url(#paint0_linear_1:1039)"/><path fill-rule="evenodd" clip-rule="evenodd" d="M10.74 9.028V7.894H7.36v1.134h3.38zm.57 1.127H5.331a1.358 1.358 0 00-1.359 1.366v2.021h1.69a.563.563 0 01.564.564v5.084h5.633v-5.084a.563.563 0 01.564-.564h1.69v-2.02a1.36 1.36 0 00-.394-.966 1.408 1.408 0 00-.965-.401H11.31zM5.1 24.831a.564.564 0 000 1.127H13a.564.564 0 000-1.127H5.1zm9.5 3.387H13a.563.563 0 100-1.126H5.1a.563.563 0 100 1.126H3.5a1.669 1.669 0 01.338-1.69 1.69 1.69 0 011.26-2.817H13a1.69 1.69 0 011.26 2.817 1.668 1.668 0 01.339 1.69zM8.486 5.641h1.127v1.127h1.697a.563.563 0 01.563.563v1.697h.895a2.486 2.486 0 012.493 2.493v2.585a.563.563 0 01-.563.563H13v5.084a.563.563 0 01-.563.564H5.662a.563.563 0 01-.563-.564V14.67H3.388a.564.564 0 01-.564-.563V11.52a2.486 2.486 0 012.493-2.493h.888V7.331a.563.563 0 01.563-.563h1.697l.021-1.127z" fill="url(#paint1_linear_1:1039)"/><defs><linearGradient id="paint0_linear_1:1039" x1="0" y1="17.5" x2="35" y2="17.5" gradientUnits="userSpaceOnUse"><stop stop-color="#EC692C"/><stop offset="0" stop-color="#EC692C"/><stop offset="1" stop-color="#EC5A2C"/></linearGradient><linearGradient id="paint1_linear_1:1039" x1="2.824" y1="16.93" x2="15.261" y2="16.93" gradientUnits="userSpaceOnUse"><stop stop-color="#EC692C"/><stop offset="0" stop-color="#EC692C"/><stop offset="1" stop-color="#EC5A2C"/></linearGradient></defs></svg>