<svg width="38" height="35" fill="none" xmlns="http://www.w3.org/2000/svg"><path d="M35.874 1.148H14.937v32.74h20.909l.028-32.74zM14.402 0h22.605v35H13.832V0h.57z" fill="url(#paint0_linear_1:1014)"/><path d="M19.219 3.64a1.113 1.113 0 00-1.902.79 1.113 1.113 0 101.902-.79zm-.76-1.45a2.226 2.226 0 011.584.655 2.241 2.241 0 11-1.585-.655z" fill="url(#paint1_linear_1:1014)"/><path d="M32.81 3.64a1.113 1.113 0 00-1.812.363c-.055.135-.083.28-.082.427a1.084 1.084 0 00.324.781 1.105 1.105 0 001.814-.358 1.112 1.112 0 00-.244-1.212zm-.782-1.45a2.24 2.24 0 110 4.479 2.232 2.232 0 01-1.598-3.852 2.212 2.212 0 011.599-.627z" fill="url(#paint2_linear_1:1014)"/><path d="M32.81 16.732a1.085 1.085 0 00-.782-.324 1.097 1.097 0 00-.788.324 1.083 1.083 0 00-.324.782 1.099 1.099 0 00.324.789 1.113 1.113 0 001.812-.362c.055-.135.083-.28.082-.427a1.086 1.086 0 00-.324-.782zm-.782-1.457a2.24 2.24 0 010 4.478 2.233 2.233 0 01-1.584-3.823 2.238 2.238 0 011.585-.655z" fill="url(#paint3_linear_1:1014)"/><path d="M32.81 29.514a1.112 1.112 0 00-1.812 1.213c.056.134.138.256.242.357a1.105 1.105 0 001.814-.358 1.112 1.112 0 00-.244-1.212zm-.782-1.45a2.24 2.24 0 011.585 3.823 2.246 2.246 0 01-3.831-1.584 2.247 2.247 0 012.246-2.24z" fill="url(#paint4_linear_1:1014)"/><path d="M19.219 29.514a1.112 1.112 0 00-1.902.789 1.113 1.113 0 101.902-.789zm-.76-1.45a2.24 2.24 0 110 4.478 2.24 2.24 0 010-4.479z" fill="url(#paint5_linear_1:1014)"/><path d="M5.916 11.972a1.134 1.134 0 00-.789-.324 1.113 1.113 0 00-.995.686 1.12 1.12 0 001.023 1.54 1.106 1.106 0 00.789-.331 1.085 1.085 0 00.324-.782 1.098 1.098 0 00-.324-.789h-.028zm-.76-1.45a2.232 2.232 0 011.584 3.823 2.241 2.241 0 01-3.168-3.168c.42-.42.99-.656 1.583-.656z" fill="url(#paint6_linear_1:1014)"/><path d="M5.916 20.789a1.097 1.097 0 00-.79-.324 1.086 1.086 0 00-.78.324 1.098 1.098 0 00-.325.788 1.105 1.105 0 001.106 1.106 1.1 1.1 0 00.789-.324 1.085 1.085 0 00.324-.782 1.099 1.099 0 00-.324-.788zm-.79-1.458a2.246 2.246 0 010 4.486 2.247 2.247 0 010-4.486z" fill="url(#paint7_linear_1:1014)"/><path d="M11.275 23.472V10.83l-5.19-3.247a5.056 5.056 0 00-2.395-.5 4.86 4.86 0 00-1.542.219 1.627 1.627 0 00-.88.598.915.915 0 00-.141.514V25.88a.944.944 0 00.14.521c.218.293.528.502.881.592.499.157 1.02.234 1.542.225a5.05 5.05 0 002.395-.507l5.19-3.24zm1.127-6.338v6.943l-5.719 3.578a6.19 6.19 0 01-2.993.704 6 6 0 01-1.901-.282 2.655 2.655 0 01-1.479-1.07A2.056 2.056 0 010 25.894V8.451a2.113 2.113 0 01.31-1.113 2.725 2.725 0 011.479-1.07 6.866 6.866 0 014.894.4l5.719 3.571v6.895z" fill="url(#paint8_linear_1:1014)"/><path d="M16.289 23.782V10.204l5.725-3.57A6.14 6.14 0 0125 5.93a6.21 6.21 0 011.902.274 2.725 2.725 0 011.479 1.07c.204.336.311.72.31 1.113v17.465a2.06 2.06 0 01-.31 1.113c-.352.52-.875.9-1.48 1.07a5.999 5.999 0 01-1.9.282 6.142 6.142 0 01-2.987-.704l-5.725-3.578v-.253zm1.127-6.634v6.338l5.19 3.24a5.049 5.049 0 002.394.507 4.862 4.862 0 001.543-.226c.353-.088.665-.297.88-.591a.944.944 0 00.14-.522V8.451a.915.915 0 00-.14-.514 1.598 1.598 0 00-.88-.599A4.86 4.86 0 0025 7.12a5.056 5.056 0 00-2.394.5l-5.19 3.246v6.282z" fill="url(#paint9_linear_1:1014)"/><defs><linearGradient id="paint0_linear_1:1014" x1="13.831" y1="17.5" x2="37.008" y2="17.5" gradientUnits="userSpaceOnUse"><stop stop-color="#EC692C"/><stop offset="0" stop-color="#EC692C"/><stop offset="1" stop-color="#EC5A2C"/></linearGradient><linearGradient id="paint1_linear_1:1014" x1="16.217" y1="4.43" x2="20.699" y2="4.43" gradientUnits="userSpaceOnUse"><stop stop-color="#EC692C"/><stop offset="0" stop-color="#EC692C"/><stop offset="1" stop-color="#EC5A2C"/></linearGradient><linearGradient id="paint2_linear_1:1014" x1="29.733" y1="4.43" x2="34.27" y2="4.43" gradientUnits="userSpaceOnUse"><stop stop-color="#EC692C"/><stop offset="0" stop-color="#EC692C"/><stop offset="1" stop-color="#EC5A2C"/></linearGradient><linearGradient id="paint3_linear_1:1014" x1="29.777" y1="17.514" x2="34.268" y2="17.514" gradientUnits="userSpaceOnUse"><stop stop-color="#EC692C"/><stop offset="0" stop-color="#EC692C"/><stop offset="1" stop-color="#EC5A2C"/></linearGradient><linearGradient id="paint4_linear_1:1014" x1="29.782" y1="30.303" x2="34.27" y2="30.303" gradientUnits="userSpaceOnUse"><stop stop-color="#EC692C"/><stop offset="0" stop-color="#EC692C"/><stop offset="1" stop-color="#EC5A2C"/></linearGradient><linearGradient id="paint5_linear_1:1014" x1="16.217" y1="30.304" x2="20.698" y2="30.304" gradientUnits="userSpaceOnUse"><stop stop-color="#EC692C"/><stop offset="0" stop-color="#EC692C"/><stop offset="1" stop-color="#EC5A2C"/></linearGradient><linearGradient id="paint6_linear_1:1014" x1="2.916" y1="12.761" x2="7.407" y2="12.761" gradientUnits="userSpaceOnUse"><stop stop-color="#EC692C"/><stop offset="0" stop-color="#EC692C"/><stop offset="1" stop-color="#EC5A2C"/></linearGradient><linearGradient id="paint7_linear_1:1014" x1="3.006" y1="21.574" x2="7.248" y2="21.574" gradientUnits="userSpaceOnUse"><stop stop-color="#EC692C"/><stop offset="0" stop-color="#EC692C"/><stop offset="1" stop-color="#EC5A2C"/></linearGradient><linearGradient id="paint8_linear_1:1014" x1="0" y1="17.177" x2="12.402" y2="17.177" gradientUnits="userSpaceOnUse"><stop stop-color="#EC692C"/><stop offset="0" stop-color="#EC692C"/><stop offset="1" stop-color="#EC5A2C"/></linearGradient><linearGradient id="paint9_linear_1:1014" x1="16.289" y1="17.123" x2="28.691" y2="17.123" gradientUnits="userSpaceOnUse"><stop stop-color="#EC692C"/><stop offset="0" stop-color="#EC692C"/><stop offset="1" stop-color="#EC5A2C"/></linearGradient></defs></svg>