<svg width="35" height="35" fill="none" xmlns="http://www.w3.org/2000/svg"><path d="M32.813 23.333H19.78l10.212-10.208a2.162 2.162 0 000-3.055l-5.059-5.062a2.21 2.21 0 00-3.054 0l-8.54 8.54a.73.73 0 001.03 1.035L22.91 6.04a.717.717 0 01.992 0l5.059 5.058a.703.703 0 010 .993L17.719 23.333h-3.865a.73.73 0 000 1.459h18.959a.73.73 0 01.729.729v7.291a.73.73 0 01-.73.73h-21.28c.087-.234.132-.48.135-.73V2.189A2.188 2.188 0 009.479 0H2.188A2.188 2.188 0 000 2.188v30.625A2.187 2.187 0 002.188 35h30.625A2.188 2.188 0 0035 32.812v-7.291a2.188 2.188 0 00-2.188-2.188zM8.75 33.542H2.187a.73.73 0 01-.729-.73V2.189a.73.73 0 01.73-.73h7.291a.73.73 0 01.73.73v30.625a.73.73 0 01-.73.729H8.75z" fill="url(#paint0_linear_2:1136)"/><path d="M5.833 26.25a2.917 2.917 0 100 5.835 2.917 2.917 0 000-5.835zm0 4.375a1.458 1.458 0 110-2.916 1.458 1.458 0 010 2.916z" fill="url(#paint1_linear_2:1136)"/><path d="M8.02 13.125H3.647a.729.729 0 00-.73.73v5.832a.73.73 0 00.73.73H8.02a.73.73 0 00.729-.73v-5.833a.73.73 0 00-.73-.729zm-.728 5.833H4.375v-4.375h2.917v4.375z" fill="url(#paint2_linear_2:1136)"/><path d="M8.02 4.375H3.647a.73.73 0 00-.73.73v5.832a.73.73 0 00.73.73H8.02a.73.73 0 00.729-.73V5.104a.73.73 0 00-.73-.729zm-.728 5.833H4.375V5.833h2.917v4.375z" fill="url(#paint3_linear_2:1136)"/><path d="M22.604 16.042a.73.73 0 00.516-.214l3.645-3.646a.73.73 0 000-1.03L23.85 8.233a.73.73 0 00-1.031 0l-3.646 3.646a.73.73 0 000 1.031l2.917 2.917a.73.73 0 00.515.214zm.73-6.261l1.885 1.886-2.615 2.614-1.886-1.885 2.615-2.615z" fill="url(#paint4_linear_2:1136)"/><path d="M16.984 14.068l-3.646 3.646a.73.73 0 000 1.03l2.917 2.918a.729.729 0 001.031 0l3.646-3.646a.73.73 0 000-1.031l-2.917-2.917a.73.73 0 00-1.03 0zm-.213 6.047l-1.886-1.886 2.615-2.614 1.886 1.885-2.615 2.615z" fill="url(#paint5_linear_2:1136)"/><path d="M29.896 32.083a.73.73 0 00.73-.729V26.98a.73.73 0 00-.73-.729h-5.833a.729.729 0 00-.73.73v4.374a.729.729 0 00.73.73h5.833zm-5.104-4.375h4.375v2.917h-4.375v-2.917z" fill="url(#paint6_linear_2:1136)"/><path d="M21.146 32.083a.73.73 0 00.73-.729V26.98a.73.73 0 00-.73-.729h-5.833a.729.729 0 00-.73.73v4.374a.729.729 0 00.73.73h5.833zm-5.104-4.375h4.375v2.917h-4.375v-2.917z" fill="url(#paint7_linear_2:1136)"/><defs><linearGradient id="paint0_linear_2:1136" x1="0" y1="17.5" x2="35" y2="17.5" gradientUnits="userSpaceOnUse"><stop stop-color="#EC692C"/><stop offset="0" stop-color="#EC692C"/><stop offset="1" stop-color="#EC5A2C"/></linearGradient><linearGradient id="paint1_linear_2:1136" x1="2.917" y1="29.167" x2="8.75" y2="29.167" gradientUnits="userSpaceOnUse"><stop stop-color="#EC692C"/><stop offset="0" stop-color="#EC692C"/><stop offset="1" stop-color="#EC5A2C"/></linearGradient><linearGradient id="paint2_linear_2:1136" x1="2.917" y1="16.771" x2="8.75" y2="16.771" gradientUnits="userSpaceOnUse"><stop stop-color="#EC692C"/><stop offset="0" stop-color="#EC692C"/><stop offset="1" stop-color="#EC5A2C"/></linearGradient><linearGradient id="paint3_linear_2:1136" x1="2.917" y1="8.021" x2="8.75" y2="8.021" gradientUnits="userSpaceOnUse"><stop stop-color="#EC692C"/><stop offset="0" stop-color="#EC692C"/><stop offset="1" stop-color="#EC5A2C"/></linearGradient><linearGradient id="paint4_linear_2:1136" x1="18.959" y1="12.031" x2="26.979" y2="12.031" gradientUnits="userSpaceOnUse"><stop stop-color="#EC692C"/><stop offset="0" stop-color="#EC692C"/><stop offset="1" stop-color="#EC5A2C"/></linearGradient><linearGradient id="paint5_linear_2:1136" x1="13.125" y1="17.865" x2="21.145" y2="17.865" gradientUnits="userSpaceOnUse"><stop stop-color="#EC692C"/><stop offset="0" stop-color="#EC692C"/><stop offset="1" stop-color="#EC5A2C"/></linearGradient><linearGradient id="paint6_linear_2:1136" x1="23.334" y1="29.167" x2="30.625" y2="29.167" gradientUnits="userSpaceOnUse"><stop stop-color="#EC692C"/><stop offset="0" stop-color="#EC692C"/><stop offset="1" stop-color="#EC5A2C"/></linearGradient><linearGradient id="paint7_linear_2:1136" x1="14.584" y1="29.167" x2="21.875" y2="29.167" gradientUnits="userSpaceOnUse"><stop stop-color="#EC692C"/><stop offset="0" stop-color="#EC692C"/><stop offset="1" stop-color="#EC5A2C"/></linearGradient></defs></svg>