<svg width="35" height="35" fill="none" xmlns="http://www.w3.org/2000/svg"><g clip-path="url(#clip0_2:1153)"><path d="M6.125 32.824c0 .39.315.705.704.705h1.127v.792c0 .905 1.408.906 1.408 0v-.792h16.272v.792c0 .905 1.408.906 1.408 0v-.792h1.127a.704.704 0 00.704-.705V.704A.704.704 0 0028.17 0H6.83a.704.704 0 00-.705.704v32.12zm21.341-8.777v3.327H7.534v-3.327h19.932zm0-1.408H7.534V1.409h19.932v21.23zm0 9.481H7.534v-3.338h19.932v3.338z" fill="url(#paint0_linear_2:1153)"/></g><defs><linearGradient id="paint0_linear_2:1153" x1="6.125" y1="17.5" x2="28.875" y2="17.5" gradientUnits="userSpaceOnUse"><stop stop-color="#EC692C"/><stop offset="0" stop-color="#EC692C"/><stop offset="1" stop-color="#EC5A2C"/></linearGradient><clipPath id="clip0_2:1153"><path fill="#fff" d="M0 0h35v35H0z"/></clipPath></defs></svg>