<svg width="35" height="35" viewBox="0 0 35 35" fill="none" xmlns="http://www.w3.org/2000/svg">
<path fill-rule="evenodd" clip-rule="evenodd" d="M18.0774 1.1268V33.8662H33.8873V1.1268H18.0774ZM20.338 31.6057H31.6056V28.2183H20.338V31.6057ZM32.1901 32.7324H19.7746C19.6252 32.7324 19.4819 32.6731 19.3763 32.5674C19.2706 32.4618 19.2113 32.3185 19.2113 32.169V27.655C19.2113 27.5055 19.2706 27.3622 19.3763 27.2566C19.4819 27.1509 19.6252 27.0916 19.7746 27.0916H32.1901C32.2647 27.0907 32.3387 27.1045 32.4079 27.1324C32.4771 27.1603 32.54 27.2017 32.5931 27.2541C32.6461 27.3065 32.6883 27.3689 32.717 27.4377C32.7458 27.5065 32.7606 27.5804 32.7605 27.655V32.169C32.7606 32.2436 32.7458 32.3175 32.717 32.3863C32.6883 32.4551 32.6461 32.5175 32.5931 32.5699C32.54 32.6223 32.4771 32.6637 32.4079 32.6916C32.3387 32.7195 32.2647 32.7334 32.1901 32.7324ZM20.338 24.831H31.6056V21.4648H20.338V24.831ZM32.1901 25.9578H19.7746C19.6252 25.9578 19.4819 25.8984 19.3763 25.7928C19.2706 25.6871 19.2113 25.5438 19.2113 25.3944V20.8803C19.2113 20.7309 19.2706 20.5876 19.3763 20.4819C19.4819 20.3763 19.6252 20.3169 19.7746 20.3169H32.1901C32.2647 20.316 32.3387 20.3299 32.4079 20.3578C32.4771 20.3857 32.54 20.427 32.5931 20.4794C32.6461 20.5318 32.6883 20.5943 32.717 20.6631C32.7458 20.7319 32.7606 20.8057 32.7605 20.8803V25.3944C32.7606 25.469 32.7458 25.5428 32.717 25.6116C32.6883 25.6804 32.6461 25.7429 32.5931 25.7953C32.54 25.8477 32.4771 25.889 32.4079 25.9169C32.3387 25.9448 32.2647 25.9587 32.1901 25.9578ZM20.338 18.0564H31.6056V3.38033H20.338V18.0564ZM32.1901 19.1902H19.7746C19.7001 19.1902 19.6262 19.1754 19.5574 19.1466C19.4886 19.1179 19.4262 19.0758 19.3738 19.0227C19.3214 18.9696 19.28 18.9067 19.2521 18.8375C19.2242 18.7684 19.2103 18.6943 19.2113 18.6198V2.81694C19.2113 2.66753 19.2706 2.52423 19.3763 2.41857C19.4819 2.31292 19.6252 2.25356 19.7746 2.25356H32.1901C32.2647 2.25263 32.3387 2.26651 32.4079 2.29441C32.4771 2.3223 32.54 2.36365 32.5931 2.41606C32.6461 2.46847 32.6883 2.5309 32.717 2.59971C32.7458 2.66853 32.7606 2.74236 32.7605 2.81694V18.6479C32.7533 18.7943 32.69 18.9322 32.5838 19.0332C32.4776 19.1341 32.3367 19.1904 32.1901 19.1902ZM21.4648 8.46482H22.5986V13.0141H21.4648V8.46482ZM24.8521 22.5493H27.1127V23.6761H24.8521V22.5493ZM24.8521 29.3169H27.1127V30.4507H24.8521V29.3169ZM10.7676 9.00004V7.86624H7.38732V9.00004H10.7676ZM11.338 10.1268H5.35914C5.18006 10.1268 5.00276 10.1622 4.8374 10.2309C4.67204 10.2997 4.52188 10.4004 4.39558 10.5274C4.26928 10.6543 4.16932 10.805 4.10143 10.9707C4.03354 11.1364 3.99907 11.3139 3.99999 11.493V13.5141H5.69013C5.83955 13.5141 5.98286 13.5735 6.08851 13.6791C6.19417 13.7848 6.25352 13.9281 6.25352 14.0775V19.162H11.8873V14.0775C11.8873 13.9281 11.9467 13.7848 12.0523 13.6791C12.158 13.5735 12.3013 13.5141 12.4507 13.5141H14.1408V11.493C14.1418 11.3141 14.1075 11.1369 14.0398 10.9713C13.9721 10.8057 13.8724 10.6552 13.7465 10.5282C13.4882 10.2756 13.1429 10.1319 12.7817 10.1268H11.338ZM1.17604 4.49299H16.9789V3.36624H1.14789L1.17604 4.49299ZM1.17604 2.23947H16.9789V1.11272H1.14789L1.17604 2.23947ZM5.09858 27.0986C4.94917 27.0986 4.80588 27.158 4.70022 27.2636C4.59457 27.3693 4.53521 27.5126 4.53521 27.662C4.53521 27.8114 4.59457 27.9547 4.70022 28.0604C4.80588 28.166 4.94917 28.2254 5.09858 28.2254H13C13.1494 28.2254 13.2927 28.166 13.3984 28.0604C13.504 27.9547 13.5634 27.8114 13.5634 27.662C13.5634 27.5126 13.504 27.3693 13.3984 27.2636C13.2927 27.158 13.1494 27.0986 13 27.0986H5.09858ZM13 29.3521H1.14789V33.8733H16.9507V29.3521H13ZM5.09858 24.8381C4.94917 24.8381 4.80588 24.8974 4.70022 25.0031C4.59457 25.1087 4.53521 25.252 4.53521 25.4014C4.53521 25.5509 4.59457 25.6942 4.70022 25.7998C4.80588 25.9055 4.94917 25.9648 5.09858 25.9648H13C13.1494 25.9648 13.2927 25.9055 13.3984 25.7998C13.504 25.6942 13.5634 25.5509 13.5634 25.4014C13.5634 25.252 13.504 25.1087 13.3984 25.0031C13.2927 24.8974 13.1494 24.8381 13 24.8381H5.09858ZM3.83804 26.5352C3.62048 26.292 3.47798 25.991 3.42777 25.6685C3.37756 25.3461 3.42176 25.016 3.55506 24.7181C3.68836 24.4202 3.90505 24.1673 4.17895 23.9899C4.45285 23.8125 4.77225 23.7182 5.09858 23.7183H13C13.3263 23.7182 13.6457 23.8125 13.9196 23.9899C14.1935 24.1673 14.4102 24.4202 14.5435 24.7181C14.6768 25.016 14.721 25.3461 14.6708 25.6685C14.6206 25.991 14.4781 26.292 14.2606 26.5352C14.4654 26.7595 14.6051 27.0355 14.6646 27.3333C14.7242 27.6311 14.7014 27.9396 14.5986 28.2254H16.9507V5.64088H9.61267V6.76765H11.3099C11.4593 6.76765 11.6026 6.827 11.7082 6.93266C11.8139 7.03831 11.8732 7.1816 11.8732 7.33102V9.0282H12.7676C13.0952 9.02728 13.4198 9.09113 13.7227 9.21608C14.0256 9.34103 14.3008 9.52463 14.5325 9.75631C14.7641 9.98798 14.9477 10.2632 15.0727 10.5661C15.1976 10.8689 15.2615 11.1935 15.2605 11.5212V14.1057C15.2605 14.1797 15.246 14.2529 15.2177 14.3213C15.1894 14.3896 15.1479 14.4517 15.0955 14.504C15.0432 14.5564 14.9811 14.5979 14.9128 14.6262C14.8444 14.6545 14.7712 14.6691 14.6972 14.6691H13V19.7536C13 19.8275 12.9854 19.9008 12.9571 19.9692C12.9288 20.0375 12.8873 20.0996 12.835 20.1519C12.7827 20.2042 12.7206 20.2457 12.6522 20.274C12.5839 20.3024 12.5106 20.3169 12.4366 20.3169H5.66198C5.58799 20.3169 5.51473 20.3024 5.44638 20.274C5.37802 20.2457 5.31591 20.2042 5.26359 20.1519C5.21128 20.0996 5.16979 20.0375 5.14148 19.9692C5.11317 19.9008 5.09858 19.8275 5.09858 19.7536V14.6691H3.38732C3.31334 14.6691 3.24007 14.6545 3.17172 14.6262C3.10337 14.5979 3.04127 14.5564 2.98896 14.504C2.93665 14.4517 2.89514 14.3896 2.86682 14.3213C2.83851 14.2529 2.82395 14.1797 2.82395 14.1057V11.5212C2.82302 11.1935 2.88685 10.8689 3.0118 10.5661C3.13676 10.2632 3.32035 9.98798 3.55203 9.75631C3.78371 9.52463 4.0589 9.34103 4.36178 9.21608C4.66466 9.09113 4.98925 9.02728 5.31689 9.0282H6.20422V7.33102C6.20422 7.1816 6.26358 7.03831 6.36923 6.93266C6.47489 6.827 6.61818 6.76765 6.76759 6.76765H8.46478V5.64088H1.14789V28.2183H3.5C3.39722 27.9325 3.37439 27.6241 3.43396 27.3263C3.49352 27.0284 3.63324 26.7525 3.83804 26.5282V26.5352ZM7.92253 30.4859H10.1761V31.6127H7.92253V30.4859ZM34.4507 35H0.570421C0.495846 35.001 0.421839 34.9871 0.352671 34.9592C0.283504 34.9313 0.220544 34.8899 0.167481 34.8375C0.114418 34.7851 0.0722931 34.7227 0.0435413 34.6539C0.0147894 34.5851 -5.82511e-06 34.5112 1.72043e-09 34.4366V0.563426C-5.82511e-06 0.488846 0.0147894 0.414998 0.0435413 0.346182C0.0722931 0.277367 0.114418 0.214947 0.167481 0.162539C0.220544 0.110132 0.283504 0.068783 0.352671 0.0408881C0.421839 0.0129933 0.495846 -0.00088823 0.570421 4.40262e-05H34.4366C34.586 4.40262e-05 34.7293 0.0593995 34.835 0.165054C34.9406 0.270708 35 0.414009 35 0.563426V34.4366C34.9982 34.5824 34.94 34.7219 34.8375 34.8256C34.7351 34.9294 34.5964 34.9894 34.4507 34.993V35Z" fill="url(#paint0_linear_1:1039)"/>
<path fill-rule="evenodd" clip-rule="evenodd" d="M10.7397 9.02819V7.89439H7.35944V9.02819H10.7397ZM11.3101 10.155H5.33127C5.15219 10.155 4.97487 10.1903 4.8095 10.2591C4.64414 10.3278 4.49399 10.4286 4.36769 10.5555C4.24139 10.6825 4.14142 10.8331 4.07354 10.9989C4.00565 11.1646 3.97117 11.3421 3.9721 11.5212V13.5423H5.66226C5.81167 13.5423 5.95496 13.6016 6.06062 13.7073C6.16627 13.8129 6.22563 13.9562 6.22563 14.1057V19.1902H11.8594V14.1057C11.8594 13.9562 11.9188 13.8129 12.0244 13.7073C12.1301 13.6016 12.2734 13.5423 12.4228 13.5423H14.113V11.5212C14.1139 11.3423 14.0796 11.165 14.0119 10.9995C13.9443 10.8339 13.8446 10.6833 13.7186 10.5564C13.4604 10.3038 13.115 10.1601 12.7538 10.155H11.3101ZM5.09886 24.831C4.94944 24.831 4.80615 24.8904 4.7005 24.996C4.59485 25.1017 4.53549 25.245 4.53549 25.3944C4.53549 25.5438 4.59485 25.6871 4.7005 25.7928C4.80615 25.8984 4.94944 25.9578 5.09886 25.9578H13.0003C13.1497 25.9578 13.293 25.8984 13.3987 25.7928C13.5043 25.6871 13.5637 25.5438 13.5637 25.3944C13.5637 25.245 13.5043 25.1017 13.3987 24.996C13.293 24.8904 13.1497 24.831 13.0003 24.831H5.09886ZM14.5989 28.2183H13.0003C13.1497 28.2183 13.293 28.159 13.3987 28.0533C13.5043 27.9477 13.5637 27.8044 13.5637 27.6549C13.5637 27.5055 13.5043 27.3622 13.3987 27.2566C13.293 27.1509 13.1497 27.0916 13.0003 27.0916H5.09886C4.94944 27.0916 4.80615 27.1509 4.7005 27.2566C4.59485 27.3622 4.53549 27.5055 4.53549 27.6549C4.53549 27.8044 4.59485 27.9477 4.7005 28.0533C4.80615 28.159 4.94944 28.2183 5.09886 28.2183H3.50028C3.3975 27.9325 3.37467 27.6241 3.43424 27.3262C3.4938 27.0284 3.63352 26.7525 3.83831 26.5282C3.62076 26.285 3.47826 25.9839 3.42805 25.6615C3.37784 25.339 3.42204 25.0089 3.55534 24.7111C3.68864 24.4132 3.90533 24.1603 4.17923 23.9829C4.45313 23.8055 4.77252 23.7111 5.09886 23.7113H13.0003C13.3266 23.7111 13.646 23.8055 13.9199 23.9829C14.1938 24.1603 14.4105 24.4132 14.5438 24.7111C14.6771 25.0089 14.7213 25.339 14.6711 25.6615C14.6209 25.9839 14.4784 26.285 14.2608 26.5282C14.4656 26.7525 14.6054 27.0284 14.6649 27.3262C14.7245 27.6241 14.7016 27.9325 14.5989 28.2183ZM8.48618 5.64087H9.61295V6.76763H11.3101C11.3841 6.76763 11.4574 6.78221 11.5257 6.81052C11.5941 6.83883 11.6562 6.88033 11.7085 6.93264C11.7608 6.98496 11.8023 7.04706 11.8306 7.11542C11.8589 7.18377 11.8735 7.25702 11.8735 7.33101V9.02819H12.7679C13.0955 9.02726 13.4201 9.09111 13.723 9.21607C14.0259 9.34102 14.3011 9.52461 14.5327 9.75629C14.7644 9.98797 14.948 10.2632 15.073 10.566C15.1979 10.8689 15.2618 11.1935 15.2608 11.5212V14.1057C15.2608 14.1796 15.2463 14.2529 15.218 14.3212C15.1896 14.3896 15.1481 14.4517 15.0958 14.504C15.0435 14.5563 14.9814 14.5978 14.9131 14.6262C14.8447 14.6545 14.7714 14.669 14.6975 14.669H13.0003V19.7535C13.0003 19.903 12.9409 20.0463 12.8353 20.1519C12.7296 20.2576 12.5863 20.3169 12.4369 20.3169H5.66226C5.51284 20.3169 5.36953 20.2576 5.26387 20.1519C5.15822 20.0463 5.09886 19.903 5.09886 19.7535V14.669H3.3876C3.31362 14.669 3.24035 14.6545 3.172 14.6262C3.10365 14.5978 3.04155 14.5563 2.98924 14.504C2.93692 14.4517 2.89542 14.3896 2.8671 14.3212C2.83879 14.2529 2.82423 14.1796 2.82423 14.1057V11.5212C2.8233 11.1935 2.88713 10.8689 3.01208 10.566C3.13704 10.2632 3.32063 9.98797 3.55231 9.75629C3.78399 9.52461 4.05918 9.34102 4.36206 9.21607C4.66494 9.09111 4.98953 9.02726 5.31717 9.02819H6.2045V7.33101C6.2045 7.18159 6.26386 7.0383 6.36951 6.93264C6.47517 6.82699 6.61845 6.76763 6.76787 6.76763H8.46506L8.48618 5.64087Z" fill="url(#paint1_linear_1:1039)"/>
<defs>
<linearGradient id="paint0_linear_1:1039" x1="1.95578e-07" y1="17.5" x2="35" y2="17.5" gradientUnits="userSpaceOnUse">
<stop stop-color="#EC692C"/>
<stop offset="0.0001" stop-color="#EC692C"/>
<stop offset="1" stop-color="#EC5A2C"/>
</linearGradient>
<linearGradient id="paint1_linear_1:1039" x1="2.82422" y1="16.9296" x2="15.2608" y2="16.9296" gradientUnits="userSpaceOnUse">
<stop stop-color="#EC692C"/>
<stop offset="0.0001" stop-color="#EC692C"/>
<stop offset="1" stop-color="#EC5A2C"/>
</linearGradient>
</defs>
</svg>
