<svg width="38" height="35" viewBox="0 0 38 35" fill="none" xmlns="http://www.w3.org/2000/svg">
<path d="M35.8737 1.14789H14.9371V33.8873H35.8455L35.8737 1.14789ZM14.4018 0H37.0075V35H13.8314V0H14.4018Z" fill="url(#paint0_linear_1:1014)"/>
<path d="M19.2186 3.6408C19.063 3.4844 18.8644 3.37779 18.6481 3.33453C18.4317 3.29127 18.2074 3.3133 18.0036 3.39784C17.7998 3.48238 17.6257 3.62561 17.5035 3.80931C17.3813 3.99301 17.3165 4.20889 17.3172 4.42953C17.3172 4.72463 17.4345 5.00764 17.6431 5.2163C17.8518 5.42497 18.1348 5.5422 18.4299 5.5422C18.725 5.5422 19.008 5.42497 19.2167 5.2163C19.4254 5.00764 19.5426 4.72463 19.5426 4.42953C19.5414 4.13448 19.4251 3.85155 19.2186 3.6408ZM18.4581 2.19008C18.7524 2.18905 19.044 2.24641 19.316 2.35883C19.5879 2.47125 19.8349 2.63651 20.0426 2.84502C20.4628 3.26526 20.6989 3.83522 20.6989 4.42953C20.6989 5.02383 20.4628 5.5938 20.0426 6.01404C19.6224 6.43427 19.0524 6.67036 18.4581 6.67036C17.8638 6.67036 17.2938 6.43427 16.8736 6.01404C16.56 5.70084 16.3464 5.30163 16.2598 4.86696C16.1732 4.43229 16.2176 3.98171 16.3873 3.57227C16.5569 3.16282 16.8442 2.81291 17.2129 2.56686C17.5815 2.32082 18.0149 2.18969 18.4581 2.19008Z" fill="url(#paint1_linear_1:1014)"/>
<path d="M32.8102 3.64087C32.6025 3.43416 32.3216 3.31774 32.0285 3.31691C31.7335 3.31816 31.4505 3.43438 31.2398 3.64087C31.136 3.74412 31.0538 3.86708 30.9982 4.00253C30.9426 4.13798 30.9146 4.28318 30.9159 4.4296C30.9147 4.57496 30.9428 4.71906 30.9984 4.85334C31.0541 4.98763 31.1362 5.10934 31.2398 5.21128C31.3427 5.31607 31.4654 5.39932 31.6009 5.45615C31.7363 5.51298 31.8817 5.54225 32.0285 5.54227C32.2486 5.54165 32.4635 5.4758 32.6461 5.35306C32.8287 5.23031 32.9708 5.05619 33.0545 4.85268C33.1382 4.64917 33.1596 4.42542 33.1161 4.20972C33.0726 3.99403 32.9662 3.79607 32.8102 3.64087ZM32.0285 2.19015C32.4717 2.18976 32.9051 2.32089 33.2737 2.56693C33.6424 2.81298 33.9297 3.16289 34.0993 3.57234C34.269 3.98178 34.3134 4.43237 34.2268 4.86703C34.1402 5.3017 33.9266 5.70091 33.613 6.01411C33.1909 6.43137 32.622 6.6665 32.0285 6.66903C31.5766 6.68185 31.1315 6.55718 30.752 6.3115C30.3726 6.06583 30.0766 5.71074 29.9034 5.29321C29.7301 4.87567 29.6876 4.41536 29.7817 3.97319C29.8757 3.53102 30.1018 3.12782 30.4299 2.81692C30.6411 2.61114 30.8914 2.44969 31.1659 2.34205C31.4404 2.23441 31.7337 2.18275 32.0285 2.19015Z" fill="url(#paint2_linear_1:1014)"/>
<path d="M32.8102 16.7323C32.7083 16.6287 32.5866 16.5466 32.4523 16.4909C32.318 16.4353 32.1739 16.4072 32.0285 16.4083C31.8821 16.407 31.7369 16.435 31.6015 16.4907C31.466 16.5463 31.343 16.6285 31.2398 16.7323C31.1362 16.8342 31.0541 16.9559 30.9985 17.0902C30.9428 17.2245 30.9147 17.3686 30.9159 17.514C30.9146 17.6604 30.9426 17.8056 30.9982 17.941C31.0538 18.0765 31.136 18.1995 31.2398 18.3027C31.4505 18.5092 31.7335 18.6254 32.0285 18.6267C32.3216 18.6258 32.6025 18.5094 32.8102 18.3027C32.9141 18.1995 32.9962 18.0765 33.0518 17.941C33.1075 17.8056 33.1355 17.6604 33.1342 17.514C33.1353 17.3686 33.1072 17.2245 33.0516 17.0902C32.9959 16.9559 32.9139 16.8342 32.8102 16.7323ZM32.0285 15.2745C32.3226 15.2745 32.6138 15.3325 32.8855 15.445C33.1572 15.5575 33.4041 15.7225 33.612 15.9304C33.82 16.1384 33.985 16.3853 34.0975 16.657C34.2101 16.9287 34.268 17.2199 34.268 17.514C34.268 18.1079 34.032 18.6775 33.612 19.0975C33.1921 19.5175 32.6225 19.7534 32.0285 19.7534C31.5838 19.7572 31.1481 19.6281 30.7772 19.3827C30.4064 19.1372 30.1173 18.7865 29.947 18.3757C29.7768 17.9648 29.7331 17.5124 29.8217 17.0766C29.9102 16.6408 30.1269 16.2413 30.444 15.9295C30.6522 15.7216 30.8992 15.5567 31.1711 15.4444C31.443 15.332 31.7343 15.2743 32.0285 15.2745Z" fill="url(#paint3_linear_1:1014)"/>
<path d="M32.8101 29.5141C32.6024 29.3073 32.3215 29.1909 32.0284 29.1901C31.7334 29.1914 31.4504 29.3076 31.2397 29.5141C31.1358 29.6173 31.0537 29.7403 30.9981 29.8757C30.9424 30.0112 30.9144 30.1564 30.9157 30.3028C30.9146 30.4481 30.9427 30.5922 30.9983 30.7265C31.054 30.8608 31.136 30.9826 31.2397 31.0845C31.3426 31.1893 31.4653 31.2725 31.6007 31.3293C31.7362 31.3862 31.8815 31.4154 32.0284 31.4155C32.2484 31.4148 32.4634 31.349 32.646 31.2263C32.8286 31.1035 32.9707 30.9294 33.0544 30.7259C33.1381 30.5224 33.1595 30.2986 33.116 30.0829C33.0725 29.8672 32.9661 29.6693 32.8101 29.5141ZM32.0284 28.0634C32.4716 28.063 32.905 28.1941 33.2736 28.4401C33.6422 28.6862 33.9296 29.0361 34.0992 29.4455C34.2689 29.855 34.3132 30.3056 34.2267 30.7402C34.1401 31.1749 33.9265 31.5741 33.6129 31.8873C33.1908 32.3046 32.6219 32.5397 32.0284 32.5422C31.4338 32.5422 30.8635 32.3065 30.4424 31.8867C30.0213 31.467 29.7838 30.8974 29.7819 30.3028C29.7838 29.7082 30.0213 29.1386 30.4424 28.7188C30.8635 28.2991 31.4338 28.0634 32.0284 28.0634Z" fill="url(#paint4_linear_1:1014)"/>
<path d="M19.2186 29.5141C19.063 29.3577 18.8644 29.251 18.6481 29.2078C18.4317 29.1645 18.2074 29.1866 18.0036 29.2711C17.7998 29.3557 17.6257 29.4989 17.5035 29.6826C17.3813 29.8663 17.3165 30.0822 17.3172 30.3028C17.3172 30.5979 17.4345 30.8809 17.6431 31.0896C17.8518 31.2982 18.1348 31.4155 18.4299 31.4155C18.725 31.4155 19.008 31.2982 19.2167 31.0896C19.4254 30.8809 19.5426 30.5979 19.5426 30.3028C19.5414 30.0077 19.4251 29.7248 19.2186 29.5141ZM18.4581 28.0634C19.052 28.0634 19.6216 28.2993 20.0416 28.7193C20.4616 29.1392 20.6975 29.7089 20.6975 30.3028C20.6979 30.746 20.5668 31.1794 20.3207 31.548C20.0747 31.9166 19.7248 32.204 19.3154 32.3736C18.9059 32.5433 18.4553 32.5876 18.0207 32.5011C17.586 32.4145 17.1868 32.2009 16.8736 31.8873C16.56 31.5741 16.3464 31.1749 16.2598 30.7402C16.1732 30.3056 16.2176 29.855 16.3873 29.4455C16.5569 29.0361 16.8442 28.6862 17.2129 28.4401C17.5815 28.1941 18.0149 28.063 18.4581 28.0634Z" fill="url(#paint5_linear_1:1014)"/>
<path d="M5.91578 11.972C5.70503 11.7655 5.42209 11.6493 5.12705 11.6481C4.84379 11.6562 4.57428 11.772 4.37352 11.972C4.26969 12.0753 4.18755 12.1982 4.13192 12.3337C4.07629 12.4691 4.04829 12.6143 4.04959 12.7608C4.05141 13.0541 4.16825 13.335 4.37501 13.5431C4.58176 13.7511 4.8619 13.8698 5.1552 13.8734C5.30206 13.8734 5.44746 13.8441 5.58288 13.7873C5.7183 13.7305 5.84106 13.6472 5.94395 13.5425C6.04758 13.4405 6.12965 13.3188 6.1853 13.1845C6.24095 13.0502 6.26904 12.9061 6.26789 12.7608C6.26918 12.6143 6.24119 12.4691 6.18556 12.3337C6.12993 12.1982 6.04779 12.0753 5.94395 11.972H5.91578ZM5.1552 10.5213C5.59993 10.5175 6.03567 10.6466 6.40653 10.8921C6.77739 11.1375 7.06649 11.4882 7.23674 11.8991C7.40699 12.3099 7.45063 12.7623 7.36207 13.1981C7.27352 13.634 7.0568 14.0334 6.73971 14.3453C6.53156 14.5531 6.28449 14.718 6.01262 14.8304C5.74074 14.9427 5.44939 15.0004 5.1552 15.0002C4.56127 15.0002 3.99166 14.7642 3.57168 14.3443C3.15171 13.9243 2.91577 13.3547 2.91577 12.7608C2.91577 12.1668 3.15171 11.5972 3.57168 11.1772C3.99166 10.7573 4.56127 10.5213 5.1552 10.5213Z" fill="url(#paint6_linear_1:1014)"/>
<path d="M5.91559 20.7888C5.81234 20.6849 5.68938 20.6028 5.55393 20.5472C5.41848 20.4915 5.27328 20.4636 5.12686 20.4648C4.9815 20.4637 4.8374 20.4918 4.70312 20.5474C4.56883 20.6031 4.44709 20.6852 4.34516 20.7888C4.24132 20.892 4.15918 21.015 4.10355 21.1504C4.04792 21.2859 4.01993 21.4311 4.02122 21.5775C4.02122 21.8708 4.1377 22.152 4.34505 22.3593C4.5524 22.5667 4.83363 22.6832 5.12686 22.6832C5.27328 22.6844 5.41848 22.6564 5.55393 22.6008C5.68938 22.5452 5.81234 22.463 5.91559 22.3592C6.01921 22.2573 6.10129 22.1355 6.15693 22.0013C6.21258 21.867 6.24067 21.7229 6.23953 21.5775C6.24082 21.4311 6.21282 21.2859 6.15719 21.1504C6.10156 21.015 6.01942 20.892 5.91559 20.7888ZM5.12686 19.3311C5.7 19.3632 6.2391 19.6135 6.63348 20.0306C7.02787 20.4477 7.24759 21 7.24759 21.574C7.24759 22.148 7.02787 22.7003 6.63348 23.1174C6.2391 23.5345 5.7 23.7848 5.12686 23.817C4.55372 23.7848 4.01462 23.5345 3.62024 23.1174C3.22585 22.7003 3.0061 22.148 3.0061 21.574C3.0061 21 3.22585 20.4477 3.62024 20.0306C4.01462 19.6135 4.55372 19.3632 5.12686 19.3311Z" fill="url(#paint7_linear_1:1014)"/>
<path d="M11.2748 23.4717V10.8309L6.08467 7.58438C5.3395 7.22427 4.51732 7.05258 3.69031 7.08438C3.16783 7.07375 2.64705 7.14746 2.14805 7.30269C1.7958 7.39785 1.48576 7.60868 1.26777 7.90129C1.17087 8.05488 1.12186 8.23384 1.12694 8.41538V25.8802C1.12214 26.0639 1.17108 26.245 1.26777 26.4013C1.48454 26.6937 1.79539 26.9026 2.14805 26.9928C2.64666 27.1504 3.16745 27.2265 3.69031 27.2182C4.51793 27.2481 5.34021 27.0739 6.08467 26.7111L11.2748 23.4717ZM12.4016 17.1337V24.0773L6.68327 27.6548C5.76072 28.1375 4.73131 28.3797 3.69031 28.359C3.04549 28.3679 2.40344 28.2728 1.78889 28.0773C1.1849 27.9066 0.660963 27.5273 0.310037 27.0069C0.10257 26.6732 -0.00496045 26.2871 0.000175762 25.8942V8.45058C-0.0018958 8.05811 0.105402 7.67283 0.310037 7.33792C0.665275 6.8217 1.18753 6.44366 1.78889 6.26748C3.41405 5.79334 5.15708 5.9363 6.68327 6.66889L12.4016 10.2393V17.1337Z" fill="url(#paint8_linear_1:1014)"/>
<path d="M16.2889 23.7818V10.2043L22.0143 6.6339C22.934 6.15032 23.9613 5.90802 25.0002 5.92968C25.6444 5.92206 26.2859 6.01471 26.9016 6.20432C27.503 6.3805 28.0252 6.75852 28.3805 7.27473C28.5851 7.60964 28.6924 7.99494 28.6903 8.38742V25.8522C28.6955 26.2451 28.5879 26.6312 28.3805 26.9649C28.0295 27.4853 27.5056 27.8645 26.9016 28.0353C26.2871 28.2308 25.645 28.3259 25.0002 28.317C23.9613 28.3386 22.934 28.0963 22.0143 27.6128L16.2889 24.0353V23.7818ZM17.4157 17.148V23.486L22.6058 26.7254C23.3503 27.0883 24.1726 27.2624 25.0002 27.2325C25.5231 27.2408 26.0438 27.1647 26.5425 27.0071C26.8961 26.9191 27.2076 26.7098 27.4227 26.4156C27.5194 26.2593 27.5684 26.0782 27.5636 25.8944V8.4508C27.5687 8.26926 27.5196 8.0903 27.4227 7.9367C27.2063 7.64247 26.8957 7.43123 26.5425 7.33813C26.0435 7.1829 25.5227 7.10916 25.0002 7.1198C24.1732 7.088 23.351 7.2597 22.6058 7.61982L17.4157 10.8663V17.148Z" fill="url(#paint9_linear_1:1014)"/>
<defs>
<linearGradient id="paint0_linear_1:1014" x1="13.8314" y1="17.5" x2="37.0075" y2="17.5" gradientUnits="userSpaceOnUse">
<stop stop-color="#EC692C"/>
<stop offset="0.0001" stop-color="#EC692C"/>
<stop offset="1" stop-color="#EC5A2C"/>
</linearGradient>
<linearGradient id="paint1_linear_1:1014" x1="16.2167" y1="4.43021" x2="20.6989" y2="4.43021" gradientUnits="userSpaceOnUse">
<stop stop-color="#EC692C"/>
<stop offset="0.0001" stop-color="#EC692C"/>
<stop offset="1" stop-color="#EC5A2C"/>
</linearGradient>
<linearGradient id="paint2_linear_1:1014" x1="29.7328" y1="4.42969" x2="34.2699" y2="4.42969" gradientUnits="userSpaceOnUse">
<stop stop-color="#EC692C"/>
<stop offset="0.0001" stop-color="#EC692C"/>
<stop offset="1" stop-color="#EC5A2C"/>
</linearGradient>
<linearGradient id="paint3_linear_1:1014" x1="29.777" y1="17.514" x2="34.268" y2="17.514" gradientUnits="userSpaceOnUse">
<stop stop-color="#EC692C"/>
<stop offset="0.0001" stop-color="#EC692C"/>
<stop offset="1" stop-color="#EC5A2C"/>
</linearGradient>
<linearGradient id="paint4_linear_1:1014" x1="29.7819" y1="30.3028" x2="34.2698" y2="30.3028" gradientUnits="userSpaceOnUse">
<stop stop-color="#EC692C"/>
<stop offset="0.0001" stop-color="#EC692C"/>
<stop offset="1" stop-color="#EC5A2C"/>
</linearGradient>
<linearGradient id="paint5_linear_1:1014" x1="16.2167" y1="30.3038" x2="20.6975" y2="30.3038" gradientUnits="userSpaceOnUse">
<stop stop-color="#EC692C"/>
<stop offset="0.0001" stop-color="#EC692C"/>
<stop offset="1" stop-color="#EC5A2C"/>
</linearGradient>
<linearGradient id="paint6_linear_1:1014" x1="2.91577" y1="12.7607" x2="7.40678" y2="12.7607" gradientUnits="userSpaceOnUse">
<stop stop-color="#EC692C"/>
<stop offset="0.0001" stop-color="#EC692C"/>
<stop offset="1" stop-color="#EC5A2C"/>
</linearGradient>
<linearGradient id="paint7_linear_1:1014" x1="3.0061" y1="21.574" x2="7.24759" y2="21.574" gradientUnits="userSpaceOnUse">
<stop stop-color="#EC692C"/>
<stop offset="0.0001" stop-color="#EC692C"/>
<stop offset="1" stop-color="#EC5A2C"/>
</linearGradient>
<linearGradient id="paint8_linear_1:1014" x1="6.92992e-08" y1="17.1765" x2="12.4016" y2="17.1765" gradientUnits="userSpaceOnUse">
<stop stop-color="#EC692C"/>
<stop offset="0.0001" stop-color="#EC692C"/>
<stop offset="1" stop-color="#EC5A2C"/>
</linearGradient>
<linearGradient id="paint9_linear_1:1014" x1="16.2889" y1="17.1233" x2="28.6905" y2="17.1233" gradientUnits="userSpaceOnUse">
<stop stop-color="#EC692C"/>
<stop offset="0.0001" stop-color="#EC692C"/>
<stop offset="1" stop-color="#EC5A2C"/>
</linearGradient>
</defs>
</svg>
