<svg width="35" height="35" viewBox="0 0 35 35" fill="none" xmlns="http://www.w3.org/2000/svg">
<path d="M32.8125 23.3333H19.7801L29.9921 13.125C30.3967 12.7196 30.6239 12.1702 30.6239 11.5974C30.6239 11.0246 30.3967 10.4752 29.9921 10.0698L24.9331 5.00792C24.5219 4.61497 23.975 4.39569 23.4062 4.39569C22.8375 4.39569 22.2906 4.61497 21.8794 5.00792L13.3386 13.5486C13.2014 13.6854 13.1242 13.871 13.1238 14.0647C13.1235 14.2584 13.2001 14.4443 13.3368 14.5815C13.4735 14.7187 13.6592 14.796 13.8529 14.7963C14.0466 14.7967 14.2325 14.7201 14.3697 14.5833L22.9104 6.03896C23.0439 5.91131 23.2215 5.84007 23.4062 5.84007C23.591 5.84007 23.7686 5.91131 23.9021 6.03896L28.961 11.0972C29.0924 11.2291 29.1661 11.4076 29.1661 11.5938C29.1661 11.7799 29.0924 11.9584 28.961 12.0903L17.7188 23.3333H13.8542C13.6608 23.3333 13.4753 23.4102 13.3386 23.5469C13.2018 23.6836 13.125 23.8691 13.125 24.0625C13.125 24.2559 13.2018 24.4414 13.3386 24.5781C13.4753 24.7148 13.6608 24.7917 13.8542 24.7917H32.8125C33.0059 24.7917 33.1914 24.8685 33.3281 25.0052C33.4648 25.142 33.5417 25.3274 33.5417 25.5208V32.8125C33.5417 33.0059 33.4648 33.1914 33.3281 33.3281C33.1914 33.4648 33.0059 33.5417 32.8125 33.5417H11.5325C11.6189 33.3081 11.6643 33.0615 11.6667 32.8125V2.1875C11.6667 1.60734 11.4362 1.05094 11.026 0.640704C10.6157 0.230468 10.0593 0 9.47917 0L2.1875 0C1.60734 0 1.05094 0.230468 0.640704 0.640704C0.230468 1.05094 0 1.60734 0 2.1875L0 32.8125C0 33.3927 0.230468 33.9491 0.640704 34.3593C1.05094 34.7695 1.60734 35 2.1875 35H32.8125C33.3927 35 33.9491 34.7695 34.3593 34.3593C34.7695 33.9491 35 33.3927 35 32.8125V25.5208C35 24.9407 34.7695 24.3843 34.3593 23.974C33.9491 23.5638 33.3927 23.3333 32.8125 23.3333ZM8.75 33.5417H2.1875C1.99411 33.5417 1.80865 33.4648 1.6719 33.3281C1.53516 33.1914 1.45833 33.0059 1.45833 32.8125V2.1875C1.45833 1.99411 1.53516 1.80865 1.6719 1.6719C1.80865 1.53516 1.99411 1.45833 2.1875 1.45833H9.47917C9.67255 1.45833 9.85802 1.53516 9.99477 1.6719C10.1315 1.80865 10.2083 1.99411 10.2083 2.1875V32.8125C10.2083 33.0059 10.1315 33.1914 9.99477 33.3281C9.85802 33.4648 9.67255 33.5417 9.47917 33.5417H8.75Z" fill="url(#paint0_linear_2:1136)"/>
<path d="M5.83317 26.25C5.25631 26.25 4.6924 26.4211 4.21276 26.7415C3.73312 27.062 3.35928 27.5176 3.13852 28.0505C2.91777 28.5835 2.86001 29.1699 2.97255 29.7357C3.08509 30.3015 3.36287 30.8212 3.77078 31.2291C4.17868 31.637 4.69838 31.9148 5.26416 32.0273C5.82994 32.1398 6.41638 32.0821 6.94933 31.8613C7.48228 31.6406 7.9378 31.2667 8.25829 30.7871C8.57878 30.3074 8.74984 29.7435 8.74984 29.1667C8.74984 28.3931 8.44255 27.6513 7.89557 27.1043C7.34859 26.5573 6.60672 26.25 5.83317 26.25ZM5.83317 30.625C5.54474 30.625 5.26279 30.5395 5.02297 30.3792C4.78314 30.219 4.59623 29.9912 4.48585 29.7247C4.37547 29.4583 4.34659 29.165 4.40286 28.8822C4.45913 28.5993 4.59802 28.3394 4.80197 28.1355C5.00593 27.9315 5.26578 27.7926 5.54867 27.7364C5.83155 27.6801 6.12478 27.709 6.39125 27.8193C6.65773 27.9297 6.88549 28.1166 7.04573 28.3565C7.20598 28.5963 7.29151 28.8782 7.29151 29.1667C7.29151 29.5534 7.13786 29.9244 6.86437 30.1979C6.59088 30.4714 6.21995 30.625 5.83317 30.625Z" fill="url(#paint1_linear_2:1136)"/>
<path d="M8.02067 13.125H3.64567C3.45228 13.125 3.26682 13.2018 3.13007 13.3386C2.99333 13.4753 2.9165 13.6608 2.9165 13.8542V19.6875C2.9165 19.8809 2.99333 20.0664 3.13007 20.2031C3.26682 20.3398 3.45228 20.4167 3.64567 20.4167H8.02067C8.21406 20.4167 8.39952 20.3398 8.53627 20.2031C8.67301 20.0664 8.74984 19.8809 8.74984 19.6875V13.8542C8.74984 13.6608 8.67301 13.4753 8.53627 13.3386C8.39952 13.2018 8.21406 13.125 8.02067 13.125ZM7.2915 18.9583H4.37484V14.5833H7.2915V18.9583Z" fill="url(#paint2_linear_2:1136)"/>
<path d="M8.02067 4.375H3.64567C3.45228 4.375 3.26682 4.45182 3.13007 4.58857C2.99333 4.72531 2.9165 4.91078 2.9165 5.10417V10.9375C2.9165 11.1309 2.99333 11.3164 3.13007 11.4531C3.26682 11.5898 3.45228 11.6667 3.64567 11.6667H8.02067C8.21406 11.6667 8.39952 11.5898 8.53627 11.4531C8.67301 11.3164 8.74984 11.1309 8.74984 10.9375V5.10417C8.74984 4.91078 8.67301 4.72531 8.53627 4.58857C8.39952 4.45182 8.21406 4.375 8.02067 4.375ZM7.2915 10.2083H4.37484V5.83333H7.2915V10.2083Z" fill="url(#paint3_linear_2:1136)"/>
<path d="M22.6042 16.0417C22.7975 16.0416 22.983 15.9648 23.1197 15.828L26.7655 12.1822C26.9022 12.0455 26.979 11.86 26.979 11.6667C26.979 11.4733 26.9022 11.2879 26.7655 11.1512L23.8489 8.23449C23.7121 8.09779 23.5267 8.021 23.3333 8.021C23.14 8.021 22.9546 8.09779 22.8178 8.23449L19.172 11.8803C19.0353 12.0171 18.9585 12.2025 18.9585 12.3958C18.9585 12.5892 19.0353 12.7746 19.172 12.9114L22.0887 15.828C22.2254 15.9648 22.4108 16.0416 22.6042 16.0417ZM23.3333 9.78105L25.219 11.6667L22.6042 14.2815L20.7185 12.3958L23.3333 9.78105Z" fill="url(#paint4_linear_2:1136)"/>
<path d="M16.9843 14.068L13.3385 17.7138C13.2018 17.8506 13.125 18.036 13.125 18.2293C13.125 18.4227 13.2018 18.6081 13.3385 18.7449L16.2552 21.6615C16.3919 21.7982 16.5773 21.875 16.7707 21.875C16.964 21.875 17.1495 21.7982 17.2862 21.6615L20.932 18.0157C21.0687 17.879 21.1455 17.6935 21.1455 17.5002C21.1455 17.3068 21.0687 17.1214 20.932 16.9846L18.0154 14.068C17.8786 13.9313 17.6932 13.8545 17.4998 13.8545C17.3065 13.8545 17.1211 13.9313 16.9843 14.068ZM16.7707 20.115L14.8851 18.2293L17.4998 15.6145L19.3855 17.5002L16.7707 20.115Z" fill="url(#paint5_linear_2:1136)"/>
<path d="M29.896 32.0833C30.0894 32.0833 30.2749 32.0065 30.4116 31.8698C30.5483 31.733 30.6252 31.5476 30.6252 31.3542V26.9792C30.6252 26.7858 30.5483 26.6003 30.4116 26.4636C30.2749 26.3268 30.0894 26.25 29.896 26.25H24.0627C23.8693 26.25 23.6838 26.3268 23.5471 26.4636C23.4103 26.6003 23.3335 26.7858 23.3335 26.9792V31.3542C23.3335 31.5476 23.4103 31.733 23.5471 31.8698C23.6838 32.0065 23.8693 32.0833 24.0627 32.0833H29.896ZM24.7918 27.7083H29.1668V30.625H24.7918V27.7083Z" fill="url(#paint6_linear_2:1136)"/>
<path d="M21.146 32.0833C21.3394 32.0833 21.5249 32.0065 21.6616 31.8698C21.7983 31.733 21.8752 31.5476 21.8752 31.3542V26.9792C21.8752 26.7858 21.7983 26.6003 21.6616 26.4636C21.5249 26.3268 21.3394 26.25 21.146 26.25H15.3127C15.1193 26.25 14.9338 26.3268 14.7971 26.4636C14.6603 26.6003 14.5835 26.7858 14.5835 26.9792V31.3542C14.5835 31.5476 14.6603 31.733 14.7971 31.8698C14.9338 32.0065 15.1193 32.0833 15.3127 32.0833H21.146ZM16.0418 27.7083H20.4168V30.625H16.0418V27.7083Z" fill="url(#paint7_linear_2:1136)"/>
<defs>
<linearGradient id="paint0_linear_2:1136" x1="1.95578e-07" y1="17.5" x2="35" y2="17.5" gradientUnits="userSpaceOnUse">
<stop stop-color="#EC692C"/>
<stop offset="0.0001" stop-color="#EC692C"/>
<stop offset="1" stop-color="#EC5A2C"/>
</linearGradient>
<linearGradient id="paint1_linear_2:1136" x1="2.9165" y1="29.1667" x2="8.74984" y2="29.1667" gradientUnits="userSpaceOnUse">
<stop stop-color="#EC692C"/>
<stop offset="0.0001" stop-color="#EC692C"/>
<stop offset="1" stop-color="#EC5A2C"/>
</linearGradient>
<linearGradient id="paint2_linear_2:1136" x1="2.9165" y1="16.7708" x2="8.74984" y2="16.7708" gradientUnits="userSpaceOnUse">
<stop stop-color="#EC692C"/>
<stop offset="0.0001" stop-color="#EC692C"/>
<stop offset="1" stop-color="#EC5A2C"/>
</linearGradient>
<linearGradient id="paint3_linear_2:1136" x1="2.9165" y1="8.02083" x2="8.74984" y2="8.02083" gradientUnits="userSpaceOnUse">
<stop stop-color="#EC692C"/>
<stop offset="0.0001" stop-color="#EC692C"/>
<stop offset="1" stop-color="#EC5A2C"/>
</linearGradient>
<linearGradient id="paint4_linear_2:1136" x1="18.9585" y1="12.0313" x2="26.979" y2="12.0313" gradientUnits="userSpaceOnUse">
<stop stop-color="#EC692C"/>
<stop offset="0.0001" stop-color="#EC692C"/>
<stop offset="1" stop-color="#EC5A2C"/>
</linearGradient>
<linearGradient id="paint5_linear_2:1136" x1="13.125" y1="17.8648" x2="21.1455" y2="17.8648" gradientUnits="userSpaceOnUse">
<stop stop-color="#EC692C"/>
<stop offset="0.0001" stop-color="#EC692C"/>
<stop offset="1" stop-color="#EC5A2C"/>
</linearGradient>
<linearGradient id="paint6_linear_2:1136" x1="23.3335" y1="29.1667" x2="30.6252" y2="29.1667" gradientUnits="userSpaceOnUse">
<stop stop-color="#EC692C"/>
<stop offset="0.0001" stop-color="#EC692C"/>
<stop offset="1" stop-color="#EC5A2C"/>
</linearGradient>
<linearGradient id="paint7_linear_2:1136" x1="14.5835" y1="29.1667" x2="21.8752" y2="29.1667" gradientUnits="userSpaceOnUse">
<stop stop-color="#EC692C"/>
<stop offset="0.0001" stop-color="#EC692C"/>
<stop offset="1" stop-color="#EC5A2C"/>
</linearGradient>
</defs>
</svg>
