<svg width="35" height="35" viewBox="0 0 35 35" fill="none" xmlns="http://www.w3.org/2000/svg">
<g clip-path="url(#clip0_1:1044)">
<path d="M6.12511 32.8244C6.12511 33.2132 6.44046 33.5286 6.82933 33.5286H7.95566V34.3213C7.95566 35.2256 9.36411 35.2268 9.36411 34.3213V33.5286H25.6357V34.3213C25.6357 35.2256 27.0442 35.2268 27.0442 34.3213V33.5286H28.1705C28.5594 33.5286 28.8747 33.2132 28.8747 32.8244V0.704222C28.8747 0.315351 28.5594 0 28.1705 0H17.4999H6.82933C6.44046 0 6.12511 0.315351 6.12511 0.704222V32.8244ZM27.4664 24.0472V27.3736H7.53355V24.0472H27.4664ZM27.4664 22.6387H18.2041H17.7631C17.3155 22.6387 17.6578 22.6387 16.7957 22.6387H7.53355V1.40844H16.7957H17.2319C17.7722 1.40844 16.7957 1.40844 17.8594 1.40844H18.2041H27.4663L27.4664 22.6387ZM27.4664 32.1202H7.53355V28.7821H27.4664V32.1202Z" fill="url(#paint0_linear_1:1044)"/>
</g>
<defs>
<linearGradient id="paint0_linear_1:1044" x1="6.12511" y1="17.5" x2="28.8747" y2="17.5" gradientUnits="userSpaceOnUse">
<stop stop-color="#EC692C"/>
<stop offset="0.0001" stop-color="#EC692C"/>
<stop offset="1" stop-color="#EC5A2C"/>
</linearGradient>
<clipPath id="clip0_1:1044">
<rect width="35" height="35" fill="white"/>
</clipPath>
</defs>
</svg>
