<svg width="12" height="12" viewBox="0 0 12 12" fill="none" xmlns="http://www.w3.org/2000/svg">
<path d="M10.9453 1.10156H1.05469C0.473145 1.10156 0 1.57471 0 2.15625V7.78125C0 8.36279 0.473145 8.83594 1.05469 8.83594H2.13281V10.5938C2.13281 10.8844 2.46524 11.0476 2.69531 10.875L5.41406 8.83594H10.9453C11.5269 8.83594 12 8.36279 12 7.78125V2.15625C12 1.57471 11.5269 1.10156 10.9453 1.10156ZM11.2969 7.78125C11.2969 7.97507 11.1391 8.13281 10.9453 8.13281H5.29688C5.22079 8.13281 5.14682 8.15753 5.08594 8.20312L2.83594 9.89062V8.48438C2.83594 8.29019 2.67856 8.13281 2.48438 8.13281H1.05469C0.86087 8.13281 0.703125 7.97507 0.703125 7.78125V2.15625C0.703125 1.96243 0.86087 1.80469 1.05469 1.80469H10.9453C11.1391 1.80469 11.2969 1.96243 11.2969 2.15625V7.78125Z" fill="#2B2A29"/>
<path d="M9.51562 3.21094H2.48438C2.29019 3.21094 2.13281 3.36832 2.13281 3.5625C2.13281 3.75668 2.29019 3.91406 2.48438 3.91406H9.51562C9.70981 3.91406 9.86719 3.75668 9.86719 3.5625C9.86719 3.36832 9.70981 3.21094 9.51562 3.21094Z" fill="#2B2A29"/>
<path d="M7.05469 4.96875C7.05469 4.77457 6.89731 4.61719 6.70312 4.61719H2.48438C2.29019 4.61719 2.13281 4.77457 2.13281 4.96875C2.13281 5.16293 2.29019 5.32031 2.48438 5.32031H6.70312C6.89731 5.32031 7.05469 5.16293 7.05469 4.96875Z" fill="#2B2A29"/>
<path d="M9.51562 4.61719H8.10938C7.91519 4.61719 7.75781 4.77457 7.75781 4.96875C7.75781 5.16293 7.91519 5.32031 8.10938 5.32031H9.51562C9.70981 5.32031 9.86719 5.16293 9.86719 4.96875C9.86719 4.77457 9.70981 4.61719 9.51562 4.61719Z" fill="#2B2A29"/>
<path d="M4.59375 6.02344H2.48438C2.29019 6.02344 2.13281 6.18082 2.13281 6.375C2.13281 6.56918 2.29019 6.72656 2.48438 6.72656H4.59375C4.78793 6.72656 4.94531 6.56918 4.94531 6.375C4.94531 6.18082 4.78793 6.02344 4.59375 6.02344Z" fill="#2B2A29"/>
<path d="M9.51562 6.02344H6C5.80582 6.02344 5.64844 6.18082 5.64844 6.375C5.64844 6.56918 5.80582 6.72656 6 6.72656H9.51562C9.70981 6.72656 9.86719 6.56918 9.86719 6.375C9.86719 6.18082 9.70981 6.02344 9.51562 6.02344Z" fill="#2B2A29"/>
</svg>
