<svg width="31" height="31" viewBox="0 0 31 31" fill="none" xmlns="http://www.w3.org/2000/svg">
<g clip-path="url(#clip0_2:990)">
<path d="M31 11.8829C31 11.8721 30.9944 11.8627 30.9939 11.8525C30.9907 11.8167 30.9836 11.7813 30.9727 11.747C30.9655 11.7165 30.9557 11.6866 30.9433 11.6577C30.9285 11.6303 30.9112 11.6043 30.8916 11.5802C30.8711 11.5506 30.8476 11.5232 30.8213 11.4986C30.813 11.4913 30.8094 11.4815 30.8007 11.4748L25.8334 7.61573V3.61612C25.8334 2.76009 25.1394 2.06609 24.2833 2.06609H18.6841L16.4422 0.325398C15.8883 -0.106187 15.1119 -0.106187 14.5579 0.325398L12.3156 2.06609H6.71634C5.86031 2.06609 5.16631 2.76003 5.16631 3.61612V7.61573L0.199506 11.4748C0.190727 11.4815 0.187094 11.4913 0.17886 11.4986C0.152582 11.5232 0.129029 11.5506 0.108563 11.5802C0.0889459 11.6043 0.0716292 11.6303 0.056916 11.6577C0.0443826 11.6865 0.0345133 11.7164 0.0274897 11.747C0.0167122 11.7806 0.00962809 11.8153 0.00629796 11.8504C0.00629796 11.8607 0.00012207 11.87 0.00012207 11.8809V29.4499C0.0021807 29.6163 0.0313042 29.7811 0.0864028 29.9381C-0.0322105 30.117 -0.0266401 30.3508 0.100268 30.5239C0.227177 30.6969 0.44854 30.7725 0.654766 30.7131C0.915849 30.8997 1.22876 31 1.54966 30.9999H29.4501C29.7724 30.9992 30.0863 30.8975 30.3476 30.709C30.3917 30.7226 30.4374 30.73 30.4835 30.7312C30.6722 30.7323 30.8462 30.6295 30.9363 30.4637C31.0264 30.2978 31.018 30.0959 30.9144 29.9382C30.9693 29.7812 30.9982 29.6163 31.0002 29.4499V11.8829H31ZM15.1898 1.14074C15.3702 0.997359 15.6257 0.997359 15.8062 1.14074L16.9981 2.06609H14.0014L15.1898 1.14074ZM1.67772 29.9666L15.1898 19.4708C15.3704 19.3283 15.6252 19.3283 15.8057 19.4708L29.3219 29.9666H1.67772ZM29.9667 29.1595L16.4412 18.655C15.8876 18.224 15.112 18.224 14.5584 18.655L1.03289 29.1595V12.6698L9.49967 19.2445C9.72527 19.4194 10.0499 19.3784 10.2248 19.1528C10.3998 18.9272 10.3587 18.6025 10.1331 18.4276L1.5315 11.7481L5.16631 8.92393V12.9163C5.16631 13.2016 5.39767 13.4329 5.68297 13.4329C5.96833 13.4329 6.19962 13.2016 6.19962 12.9163V3.61612C6.19962 3.33076 6.43092 3.09946 6.71628 3.09946H24.2832C24.5686 3.09946 24.7999 3.33076 24.7999 3.61612V12.9163C24.7999 13.2016 25.0312 13.4329 25.3165 13.4329C25.6019 13.4329 25.8332 13.2016 25.8332 12.9163V8.92393L29.468 11.7481L20.851 18.4395C20.6256 18.6146 20.5848 18.9392 20.7598 19.1647C20.9349 19.3901 21.2595 19.4309 21.485 19.2559L29.9667 12.6699V29.1595Z" fill="url(#paint0_linear_2:990)"/>
<path d="M10.3329 6.71544H20.6664C20.9518 6.71544 21.1831 6.48415 21.1831 6.19878C21.1831 5.91342 20.9518 5.68213 20.6664 5.68213H10.3329C10.0475 5.68213 9.81622 5.91342 9.81622 6.19878C9.81622 6.48415 10.0475 6.71544 10.3329 6.71544Z" fill="url(#paint1_linear_2:990)"/>
<path d="M21.1831 9.29888C21.1831 9.01352 20.9518 8.78223 20.6664 8.78223H10.3329C10.0475 8.78223 9.81622 9.01358 9.81622 9.29888C9.81622 9.58424 10.0475 9.81554 10.3329 9.81554H20.6664C20.9518 9.81554 21.1831 9.58418 21.1831 9.29888Z" fill="url(#paint2_linear_2:990)"/>
<path d="M21.1832 12.399C21.1832 12.1136 20.9519 11.8823 20.6665 11.8823H16.0164C15.731 11.8823 15.4998 12.1136 15.4998 12.399C15.4998 12.6843 15.731 12.9156 16.0164 12.9156H20.6665C20.9519 12.9156 21.1832 12.6843 21.1832 12.399Z" fill="url(#paint3_linear_2:990)"/>
</g>
<defs>
<linearGradient id="paint0_linear_2:990" x1="0.000122244" y1="15.5008" x2="31.0002" y2="15.5008" gradientUnits="userSpaceOnUse">
<stop stop-color="#EC692C"/>
<stop offset="0.0001" stop-color="#EC692C"/>
<stop offset="1" stop-color="#EC5A2C"/>
</linearGradient>
<linearGradient id="paint1_linear_2:990" x1="9.81622" y1="6.19878" x2="21.1831" y2="6.19878" gradientUnits="userSpaceOnUse">
<stop stop-color="#EC692C"/>
<stop offset="0.0001" stop-color="#EC692C"/>
<stop offset="1" stop-color="#EC5A2C"/>
</linearGradient>
<linearGradient id="paint2_linear_2:990" x1="9.81622" y1="9.29888" x2="21.1831" y2="9.29888" gradientUnits="userSpaceOnUse">
<stop stop-color="#EC692C"/>
<stop offset="0.0001" stop-color="#EC692C"/>
<stop offset="1" stop-color="#EC5A2C"/>
</linearGradient>
<linearGradient id="paint3_linear_2:990" x1="15.4998" y1="12.399" x2="21.1832" y2="12.399" gradientUnits="userSpaceOnUse">
<stop stop-color="#EC692C"/>
<stop offset="0.0001" stop-color="#EC692C"/>
<stop offset="1" stop-color="#EC5A2C"/>
</linearGradient>
<clipPath id="clip0_2:990">
<rect width="31" height="31" fill="white"/>
</clipPath>
</defs>
</svg>
