<svg width="22" height="22" viewBox="0 0 22 22" fill="none" xmlns="http://www.w3.org/2000/svg">
<g opacity="0.5" clip-path="url(#clip0_2:859)">
<path d="M9.98959 16.7718C9.82191 16.9393 9.82191 17.2114 9.98959 17.3792C10.1576 17.5469 10.4295 17.5469 10.597 17.3792C10.765 17.2114 10.765 16.9393 10.597 16.7718C10.4295 16.6037 10.1576 16.6037 9.98959 16.7718Z" fill="#2B2A29"/>
<path d="M21.0091 16.0254L17.7468 13.2514C17.7317 13.2386 17.7157 13.2269 17.6991 13.2163C16.8433 12.6715 15.7444 12.7921 15.0268 13.5095L13.2482 15.288C13.125 15.4114 12.9412 15.4478 12.78 15.3813C10.7716 14.5505 9.12166 13.2997 7.87607 11.664C6.92623 10.4168 6.58382 9.42565 6.53867 9.286C6.5333 9.25612 6.52474 9.22641 6.51265 9.19738C6.44602 9.03624 6.48244 8.85279 6.60598 8.72959L8.38448 6.95058C9.10203 6.23304 9.22254 5.13414 8.67771 4.27829C8.67334 4.27141 8.66881 4.2647 8.66411 4.25798L6.30822 0.984136C5.56701 -0.165781 3.95249 -0.339502 2.98351 0.629308L2.62734 0.985479C2.62717 0.985815 2.62684 0.98615 2.6265 0.986318L1.35489 2.25792C-0.161433 3.77442 -0.40951 6.0531 0.637685 8.84809C1.53466 11.2423 3.33028 13.8625 5.69373 16.226C8.11307 18.6453 10.8042 20.4742 13.2712 21.3757C15.713 22.2678 18.3104 22.3777 20.1489 20.5391L21.3481 19.34C22.3127 18.3752 22.1444 16.7713 21.0091 16.0254ZM17.2144 13.9265L20.4738 16.6981C20.4887 16.7109 20.5047 16.7226 20.5213 16.7332C21.2175 17.1765 21.3229 18.15 20.7403 18.7324L20.6514 18.8215L15.0921 14.6593L15.6344 14.1171C16.0583 13.6931 16.7041 13.6164 17.2144 13.9265ZM5.59034 1.45629C5.5947 1.46317 5.59923 1.47005 5.60393 1.4766L7.95882 4.74927C8.27874 5.26137 8.20472 5.91513 7.77688 6.34298L7.25135 6.86867L3.49024 1.33779L3.59112 1.23691C4.17606 0.651968 5.14873 0.762579 5.59034 1.45629ZM13.5659 20.5685C11.214 19.7091 8.63407 17.9511 6.30134 15.6183C4.02265 13.3398 2.29702 10.8283 1.44217 8.54663C0.800497 6.83393 0.36997 4.45806 1.9625 2.8657L2.87172 1.9563L6.63283 7.48719L5.99854 8.12181C5.63767 8.48201 5.52421 9.01509 5.70431 9.48977C5.83993 10.0463 6.46398 11.2016 7.09357 12.0529C8.02009 13.3058 9.70174 15.0378 12.4516 16.1754C12.9348 16.3753 13.4858 16.2656 13.8558 15.8958L14.4783 15.2731L20.0376 19.4353L19.5413 19.9315C17.8341 21.6388 15.3496 21.2202 13.5659 20.5685Z" fill="#2B2A29"/>
<path d="M9.18326 15.7459C8.7294 15.3479 7.94438 14.6635 7.53098 14.2381C6.51718 13.1963 5.45354 11.9334 4.82109 11.021C4.68598 10.826 4.41826 10.7773 4.22322 10.9126C4.02819 11.0477 3.97968 11.3154 4.1148 11.5105C4.9124 12.6612 6.08431 13.9835 6.91498 14.8372C7.35138 15.2863 8.14311 15.9769 8.61661 16.3919C8.79469 16.548 9.0661 16.5309 9.22304 16.3522C9.37947 16.1739 9.36168 15.9023 9.18326 15.7459Z" fill="#2B2A29"/>
</g>
<defs>
<clipPath id="clip0_2:859">
<rect width="22" height="22" fill="white"/>
</clipPath>
</defs>
</svg>
