<svg width="26" height="22" viewBox="0 0 26 22" fill="none" xmlns="http://www.w3.org/2000/svg">
<path d="M25.2389 20.5695L18.1153 14.1787C19.4664 12.6822 20.2797 10.7797 20.2797 8.70836C20.2797 3.9066 15.9253 0 10.573 0C5.22068 0 0.866241 3.9066 0.866241 8.70836C0.866241 13.5101 5.22073 17.4167 10.573 17.4167C12.8819 17.4167 15.0025 16.687 16.6705 15.4749L23.7941 21.8658C23.9936 22.0447 24.317 22.0447 24.5166 21.8658L25.2389 21.2177C25.4384 21.0387 25.4384 20.7485 25.2389 20.5695ZM10.573 15.5834C6.34727 15.5834 2.90979 12.4995 2.90979 8.70836C2.90979 4.91727 6.34727 1.83335 10.573 1.83335C14.7988 1.83335 18.2362 4.91727 18.2362 8.70836C18.2362 12.4995 14.7988 15.5834 10.573 15.5834Z" fill="#2B2A29"/>
</svg>
