<svg width="215" height="54" viewBox="0 0 215 54" fill="none" xmlns="http://www.w3.org/2000/svg">
<path d="M64.1286 2.82074C68.8432 2.82074 71.0802 4.99089 71.0802 9.77234V17.0671C71.0802 21.8485 68.8521 24.0142 64.1286 24.0142H55.8045V26.8394H48.7148V24.0142H40.3862C35.6761 24.0142 33.4213 21.8351 33.4213 17.0671V9.77234C33.4213 4.99089 35.6493 2.82074 40.3684 2.82074H48.697V0H55.7867V2.82074H64.1286ZM48.7148 18.5153V8.32855H43.2783C41.625 8.32855 41.0769 8.87665 41.0769 10.5343V16.3273C41.0769 17.9806 41.625 18.5331 43.2783 18.5331L48.7148 18.5153ZM63.4201 10.5343C63.4201 8.87665 62.8408 8.32855 61.2187 8.32855H55.8045V18.5153H61.2366C62.8586 18.5153 63.4379 17.9627 63.4379 16.3095L63.4201 10.5343Z" fill="#2B2A29"/>
<path d="M80.7543 25.4625C76.0397 25.4625 73.8071 23.2923 73.8071 18.5109V8.32855C73.8071 3.5471 76.0352 1.37695 80.7543 1.37695H96.3062C101.025 1.37695 103.258 3.5471 103.258 8.32855V18.5109C103.258 23.2923 101.03 25.4625 96.3062 25.4625H80.7543ZM93.4142 19.1615C95.0318 19.1615 95.6423 18.6089 95.6423 16.9601V9.87483C95.6423 8.2216 95.0541 7.67795 93.4142 7.67795H83.6463C81.9931 7.67795 81.4182 8.2216 81.4182 9.87483V16.9646C81.4182 18.6133 81.9708 19.1659 83.6463 19.1659L93.4142 19.1615Z" fill="#2B2A29"/>
<path d="M106.261 25.4624V1.39917H127.727C132.134 1.39917 133.992 3.25739 133.992 7.66006V12.339C133.992 16.7462 132.134 18.6044 127.727 18.6044H113.913V25.4624H106.261ZM113.899 13.1144H124.492C125.9 13.1144 126.35 12.6688 126.35 11.2517V8.97908C126.35 7.56648 125.904 7.12087 124.492 7.12087H113.899V13.1144Z" fill="#2B2A29"/>
<path d="M162.868 1.37695H169.303V25.4625H162.106V12.2856L154.882 21.7104H150.89L143.666 12.2856V25.4625H136.474V1.37695H143.216L153.024 14.4157L162.868 1.37695Z" fill="#2B2A29"/>
<path d="M208.428 1.37695H214.862V25.4625H207.67V12.2856L200.447 21.7104H196.454L189.23 12.2856V25.4625H182.043V1.37695H188.78L198.588 14.4157L208.428 1.37695Z" fill="#EC692C"/>
<path d="M178.852 10.2402H172.484V16.6081H178.852V10.2402Z" fill="#EC692C"/>
<path d="M27.0667 0H20.6989V6.3723H27.0667V0Z" fill="#2B2A29"/>
<path d="M27.0667 10.2402H20.6989V16.6081H27.0667V10.2402Z" fill="#2B2A29"/>
<path d="M27.0667 20.4717H20.6989V26.8395H27.0667V20.4717Z" fill="#2B2A29"/>
<path d="M16.7819 0H10.4141V6.3723H16.7819V0Z" fill="#2B2A29"/>
<path d="M16.7819 10.2402H10.4141V16.6081H16.7819V10.2402Z" fill="#2B2A29"/>
<path d="M16.7819 20.4717H10.4141V26.8395H16.7819V20.4717Z" fill="#2B2A29"/>
<path d="M6.49766 0H0.125366V6.3723H6.49766V0Z" fill="#EC692C"/>
<path d="M6.49693 10.2402H0.124634V16.6081H6.49693V10.2402Z" fill="#EC692C"/>
<path d="M6.49693 20.4717H0.124634V26.8395H6.49693V20.4717Z" fill="#EC692C"/>
<path d="M6.5665 41.2627L4.117 45.9892L1.7365 41.2627H0.138L3.3465 47.2657L3.22 47.4612C2.8865 47.9902 2.4955 48.2087 2.024 48.2087C1.7825 48.2087 1.5295 48.1512 1.242 48.0592L0.874 49.2322C1.2765 49.4047 1.679 49.4852 2.0585 49.4852C3.036 49.4852 3.9215 48.9332 4.5425 47.7602L8.0385 41.2627H6.5665ZM15.9667 41.1477C13.8277 41.1477 12.1717 42.5507 11.8497 44.5632H10.5617V41.2627H9.08967V49.3127H10.5617V45.8972H11.8267C12.1027 47.9672 13.7817 49.4277 15.9667 49.4277C18.3587 49.4277 20.1297 47.6797 20.1297 45.2877C20.1297 42.8957 18.3587 41.1477 15.9667 41.1477ZM15.9667 48.1167C14.4717 48.1167 13.3102 46.9667 13.3102 45.2877C13.3102 43.6087 14.4717 42.4587 15.9667 42.4587C17.4732 42.4587 18.6232 43.6087 18.6232 45.2877C18.6232 46.9667 17.4732 48.1167 15.9667 48.1167ZM27.532 41.2627H20.724V42.5277H23.3805V49.3127H24.864V42.5277H27.532V41.2627ZM32.0111 49.3127H33.4026L37.7266 43.6087V49.3127H39.1986V41.2627H37.8071L33.4831 46.9782V41.2627H32.0111V49.3127ZM49.9583 49.3127H51.6488L48.7968 45.1612L51.5453 41.2627H49.9583L47.6468 44.6322H46.1058V41.2627H44.6338V49.3127H46.1058V45.9202H47.6008L49.9583 49.3127ZM56.3672 49.4277C58.8627 49.4277 60.7027 47.6797 60.7027 45.2877C60.7027 42.8957 58.8627 41.1477 56.3672 41.1477C53.8717 41.1477 52.0317 42.9072 52.0317 45.2877C52.0317 47.6682 53.8717 49.4277 56.3672 49.4277ZM56.3672 48.1167C54.7457 48.1167 53.5382 46.9322 53.5382 45.2877C53.5382 43.6432 54.7457 42.4587 56.3672 42.4587C57.9887 42.4587 59.1962 43.6432 59.1962 45.2877C59.1962 46.9322 57.9887 48.1167 56.3672 48.1167ZM71.176 49.3127L71.153 41.2627H69.934L66.783 46.5872L63.5975 41.2627H62.367V49.3127H63.7815V44.0457L66.4265 48.3927H67.0935L69.7385 43.9767L69.75 49.3127H71.176ZM82.6288 45.2762C82.6288 43.1602 81.0993 41.8952 78.3853 41.7572V40.9407H77.0053V41.7572C74.2913 41.8952 72.7503 43.1487 72.7503 45.2762C72.7503 47.3922 74.2913 48.6457 77.0053 48.7837V49.6347H78.3853V48.7837C81.0993 48.6687 82.6288 47.3922 82.6288 45.2762ZM78.3853 47.6107V42.9417C80.2023 43.0682 81.1913 43.8502 81.1913 45.2647C81.1913 46.6792 80.2253 47.4727 78.3853 47.6107ZM74.2108 45.2762C74.2108 43.8502 75.1538 43.0797 77.0053 42.9417V47.6107C75.2228 47.4612 74.2108 46.6907 74.2108 45.2762ZM87.9248 49.4277C90.4203 49.4277 92.2603 47.6797 92.2603 45.2877C92.2603 42.8957 90.4203 41.1477 87.9248 41.1477C85.4293 41.1477 83.5893 42.9072 83.5893 45.2877C83.5893 47.6682 85.4293 49.4277 87.9248 49.4277ZM87.9248 48.1167C86.3033 48.1167 85.0958 46.9322 85.0958 45.2877C85.0958 43.6432 86.3033 42.4587 87.9248 42.4587C89.5463 42.4587 90.7538 43.6432 90.7538 45.2877C90.7538 46.9322 89.5463 48.1167 87.9248 48.1167ZM97.2251 41.2627H93.9131V49.3127H95.4081V46.9897H97.2251C99.3411 46.9897 100.652 45.8972 100.652 44.1262C100.652 42.3437 99.3411 41.2627 97.2251 41.2627ZM97.1561 45.7247H95.4081V42.5277H97.1561C98.4671 42.5277 99.1456 43.1142 99.1456 44.1262C99.1456 45.1382 98.4671 45.7247 97.1561 45.7247ZM107.673 41.2627H100.865V42.5277H103.521V49.3127H105.005V42.5277H107.673V41.2627ZM117.442 45.1267C118.189 44.8047 118.626 44.1952 118.626 43.3327C118.626 41.9987 117.545 41.2627 115.751 41.2627H112.152V49.3127H115.97C117.971 49.3127 119.017 48.4732 119.017 47.0817C119.017 46.0697 118.454 45.4027 117.442 45.1267ZM113.624 42.4127H115.625C116.591 42.4127 117.108 42.8037 117.108 43.5627C117.108 44.3102 116.591 44.7012 115.625 44.7012H113.624V42.4127ZM115.924 48.1627H113.624V45.7937H115.924C116.959 45.7937 117.511 46.1617 117.511 46.9667C117.511 47.7717 116.959 48.1627 115.924 48.1627ZM129.541 49.3127L129.518 41.2627H128.299L125.148 46.5872L121.962 41.2627H120.732V49.3127H122.146V44.0457L124.791 48.3927H125.458L128.103 43.9767L128.115 49.3127H129.541ZM133.289 48.0592V45.8397H137.176V44.6092H133.289V42.5162H137.67V41.2627H131.794V49.3127H137.831V48.0592H133.289ZM143.167 49.4277C144.489 49.4277 145.616 48.9562 146.364 48.0822L145.398 47.1622C144.811 47.8062 144.087 48.1167 143.247 48.1167C141.58 48.1167 140.372 46.9437 140.372 45.2877C140.372 43.6317 141.58 42.4587 143.247 42.4587C144.087 42.4587 144.811 42.7692 145.398 43.4017L146.364 42.4932C145.616 41.6192 144.489 41.1477 143.178 41.1477C140.706 41.1477 138.866 42.8842 138.866 45.2877C138.866 47.6912 140.706 49.4277 143.167 49.4277ZM153.504 41.2627H146.696V42.5277H149.353V49.3127H150.836V42.5277H153.504V41.2627ZM156.289 48.0592V45.8397H160.176V44.6092H156.289V42.5162H160.67V41.2627H154.794V49.3127H160.831V48.0592H156.289ZM169.379 49.4277C170.701 49.4277 171.828 48.9562 172.576 48.0822L171.61 47.1622C171.023 47.8062 170.299 48.1167 169.459 48.1167C167.792 48.1167 166.584 46.9437 166.584 45.2877C166.584 43.6317 167.792 42.4587 169.459 42.4587C170.299 42.4587 171.023 42.7692 171.61 43.4017L172.576 42.4932C171.828 41.6192 170.701 41.1477 169.39 41.1477C166.918 41.1477 165.078 42.8842 165.078 45.2877C165.078 47.6912 166.918 49.4277 169.379 49.4277ZM182.8 41.2627V44.5862H178.637V41.2627H177.142V49.3127H178.637V45.8627H182.8V49.3127H184.295V41.2627H182.8ZM192.694 49.3127H194.258L190.624 41.2627H189.152L185.53 49.3127H187.071L187.864 47.4497H191.889L192.694 49.3127ZM188.37 46.2767L189.877 42.7577L191.395 46.2767H188.37ZM204.313 49.3127L204.29 41.2627H203.071L199.92 46.5872L196.735 41.2627H195.504V49.3127H196.919V44.0457L199.564 48.3927H200.231L202.876 43.9767L202.887 49.3127H204.313ZM206.577 49.3127H207.969L212.293 43.6087V49.3127H213.765V41.2627H212.373L208.049 46.9782V41.2627H206.577V49.3127Z" fill="#2B2A29"/>
</svg>
