<svg xmlns="http://www.w3.org/2000/svg">
	<symbol id="icon" viewBox="0 0 35 35">
		<path d="M18.0774 1.1268V33.8662H33.8873V1.1268H18.0774ZM20.338 31.6057H31.6056V28.2183H20.338V31.6057ZM32.1901 32.7324H19.7746C19.6252 32.7324 19.4819 32.6731 19.3763 32.5674C19.2706 32.4618 19.2113 32.3185 19.2113 32.169V27.655C19.2113 27.5055 19.2706 27.3622 19.3763 27.2566C19.4819 27.1509 19.6252 27.0916 19.7746 27.0916H32.1901C32.2647 27.0907 32.3387 27.1045 32.4079 27.1324C32.4771 27.1603 32.54 27.2017 32.5931 27.2541C32.6461 27.3065 32.6883 27.3689 32.717 27.4377C32.7458 27.5065 32.7606 27.5804 32.7605 27.655V32.169C32.7606 32.2436 32.7458 32.3175 32.717 32.3863C32.6883 32.4551 32.6461 32.5175 32.5931 32.5699C32.54 32.6223 32.4771 32.6637 32.4079 32.6916C32.3387 32.7195 32.2647 32.7334 32.1901 32.7324V32.7324ZM20.338 24.831H31.6056V21.4648H20.338V24.831ZM32.1901 25.9578H19.7746C19.6252 25.9578 19.4819 25.8984 19.3763 25.7928C19.2706 25.6871 19.2113 25.5438 19.2113 25.3944V20.8803C19.2113 20.7309 19.2706 20.5876 19.3763 20.4819C19.4819 20.3763 19.6252 20.3169 19.7746 20.3169H32.1901C32.2647 20.316 32.3387 20.3299 32.4079 20.3578C32.4771 20.3857 32.54 20.427 32.5931 20.4794C32.6461 20.5318 32.6883 20.5943 32.717 20.6631C32.7458 20.7319 32.7606 20.8057 32.7605 20.8803V25.3944C32.7606 25.469 32.7458 25.5428 32.717 25.6116C32.6883 25.6804 32.6461 25.7429 32.5931 25.7953C32.54 25.8477 32.4771 25.889 32.4079 25.9169C32.3387 25.9448 32.2647 25.9587 32.1901 25.9578V25.9578ZM20.338 18.0564H31.6056V3.38033H20.338V18.0564ZM32.1901 19.1902H19.7746C19.7001 19.1902 19.6262 19.1754 19.5574 19.1466C19.4886 19.1179 19.4262 19.0757 19.3738 19.0227C19.3213 18.9696 19.28 18.9067 19.2521 18.8375C19.2242 18.7684 19.2103 18.6943 19.2113 18.6198V2.81694C19.2113 2.66753 19.2706 2.52423 19.3763 2.41857C19.4819 2.31292 19.6252 2.25356 19.7746 2.25356H32.1901C32.2647 2.25263 32.3387 2.26651 32.4079 2.29441C32.4771 2.3223 32.54 2.36365 32.5931 2.41606C32.6461 2.46847 32.6883 2.5309 32.717 2.59971C32.7458 2.66853 32.7606 2.74236 32.7605 2.81694V18.6479C32.7533 18.7943 32.69 18.9322 32.5838 19.0332C32.4776 19.1341 32.3367 19.1904 32.1901 19.1902V19.1902ZM21.4648 8.46482H22.5986V13.0141H21.4648V8.46482ZM24.8521 22.5493H27.1127V23.6761H24.8521V22.5493ZM24.8521 29.3169H27.1127V30.4507H24.8521V29.3169ZM10.7676 9.00004V7.86624H7.38732V9.00004H10.7676ZM11.338 10.1268H5.35914C5.18006 10.1268 5.00276 10.1622 4.8374 10.2309C4.67204 10.2997 4.52188 10.4004 4.39558 10.5274C4.26928 10.6543 4.16932 10.805 4.10143 10.9707C4.03354 11.1364 3.99907 11.3139 3.99999 11.493V13.5141H5.69013C5.83955 13.5141 5.98286 13.5735 6.08851 13.6791C6.19417 13.7848 6.25352 13.9281 6.25352 14.0775V19.162H11.8873V14.0775C11.8873 13.9281 11.9467 13.7848 12.0523 13.6791C12.158 13.5735 12.3013 13.5141 12.4507 13.5141H14.1408V11.493C14.1418 11.3141 14.1075 11.1369 14.0398 10.9713C13.9721 10.8057 13.8724 10.6552 13.7465 10.5282C13.4882 10.2756 13.1429 10.1319 12.7817 10.1268H11.338ZM1.17604 4.49299H16.9789V3.36624H1.14789L1.17604 4.49299ZM1.17604 2.23947H16.9789V1.11272H1.14789L1.17604 2.23947ZM5.09858 27.0986C4.94917 27.0986 4.80588 27.158 4.70022 27.2636C4.59457 27.3693 4.53521 27.5126 4.53521 27.662C4.53521 27.8114 4.59457 27.9547 4.70022 28.0604C4.80588 28.166 4.94917 28.2254 5.09858 28.2254H13C13.1494 28.2254 13.2927 28.166 13.3984 28.0604C13.504 27.9547 13.5634 27.8114 13.5634 27.662C13.5634 27.5126 13.504 27.3693 13.3984 27.2636C13.2927 27.158 13.1494 27.0986 13 27.0986H5.09858ZM13 29.3521H1.14789V33.8733H16.9507V29.3521H13ZM5.09858 24.8381C4.94917 24.8381 4.80588 24.8974 4.70022 25.0031C4.59457 25.1087 4.53521 25.252 4.53521 25.4014C4.53521 25.5509 4.59457 25.6942 4.70022 25.7998C4.80588 25.9055 4.94917 25.9648 5.09858 25.9648H13C13.1494 25.9648 13.2927 25.9055 13.3984 25.7998C13.504 25.6942 13.5634 25.5509 13.5634 25.4014C13.5634 25.252 13.504 25.1087 13.3984 25.0031C13.2927 24.8974 13.1494 24.8381 13 24.8381H5.09858ZM3.83804 26.5352C3.62048 26.292 3.47798 25.991 3.42777 25.6685C3.37756 25.3461 3.42176 25.016 3.55506 24.7181C3.68836 24.4202 3.90505 24.1673 4.17895 23.9899C4.45285 23.8125 4.77225 23.7182 5.09858 23.7183H13C13.3263 23.7182 13.6457 23.8125 13.9196 23.9899C14.1935 24.1673 14.4102 24.4202 14.5435 24.7181C14.6768 25.016 14.721 25.3461 14.6708 25.6685C14.6206 25.991 14.4781 26.292 14.2606 26.5352C14.4654 26.7595 14.6051 27.0355 14.6646 27.3333C14.7242 27.6311 14.7014 27.9396 14.5986 28.2254H16.9507V5.64088H9.61267V6.76765H11.3099C11.4593 6.76765 11.6026 6.827 11.7082 6.93266C11.8139 7.03831 11.8732 7.1816 11.8732 7.33102V9.0282H12.7676C13.0952 9.02728 13.4198 9.09113 13.7227 9.21608C14.0256 9.34103 14.3008 9.52463 14.5325 9.75631C14.7641 9.98798 14.9477 10.2632 15.0727 10.5661C15.1976 10.8689 15.2615 11.1935 15.2605 11.5212V14.1057C15.2605 14.1797 15.246 14.2529 15.2177 14.3213C15.1894 14.3896 15.1479 14.4517 15.0955 14.504C15.0432 14.5564 14.9811 14.5979 14.9128 14.6262C14.8444 14.6545 14.7712 14.6691 14.6972 14.6691H13V19.7536C13 19.8275 12.9854 19.9008 12.9571 19.9692C12.9288 20.0375 12.8873 20.0996 12.835 20.1519C12.7827 20.2042 12.7206 20.2457 12.6522 20.274C12.5839 20.3024 12.5106 20.3169 12.4366 20.3169H5.66198C5.58799 20.3169 5.51473 20.3024 5.44638 20.274C5.37802 20.2457 5.31591 20.2042 5.26359 20.1519C5.21128 20.0996 5.16979 20.0375 5.14148 19.9692C5.11317 19.9008 5.09858 19.8275 5.09858 19.7536V14.6691H3.38732C3.31334 14.6691 3.24007 14.6545 3.17172 14.6262C3.10337 14.5979 3.04127 14.5564 2.98896 14.504C2.93664 14.4517 2.89514 14.3896 2.86682 14.3213C2.83851 14.2529 2.82395 14.1797 2.82395 14.1057V11.5212C2.82302 11.1935 2.88685 10.8689 3.0118 10.5661C3.13676 10.2632 3.32035 9.98798 3.55203 9.75631C3.78371 9.52463 4.0589 9.34103 4.36178 9.21608C4.66466 9.09113 4.98925 9.02728 5.31689 9.0282H6.20422V7.33102C6.20422 7.1816 6.26358 7.03831 6.36923 6.93266C6.47489 6.827 6.61818 6.76765 6.76759 6.76765H8.46478V5.64088H1.14789V28.2183H3.5C3.39722 27.9325 3.37439 27.6241 3.43396 27.3263C3.49352 27.0284 3.63324 26.7525 3.83804 26.5282V26.5352ZM7.92253 30.4859H10.1761V31.6127H7.92253V30.4859ZM34.4507 35H0.570421C0.495846 35.001 0.421839 34.9871 0.352671 34.9592C0.283504 34.9313 0.220544 34.8899 0.167481 34.8375C0.114418 34.7851 0.0722931 34.7227 0.0435413 34.6539C0.0147894 34.5851 -5.82511e-06 34.5112 1.72043e-09 34.4366V0.563426C-5.82511e-06 0.488846 0.0147894 0.414998 0.0435413 0.346182C0.0722931 0.277367 0.114418 0.214947 0.167481 0.162539C0.220544 0.110132 0.283504 0.068783 0.352671 0.0408881C0.421839 0.0129933 0.495846 -0.00088823 0.570421 4.40262e-05H34.4366C34.586 4.40262e-05 34.7293 0.0593995 34.835 0.165054C34.9406 0.270708 35 0.414009 35 0.563426V34.4366C34.9982 34.5824 34.94 34.7219 34.8375 34.8256C34.7351 34.9294 34.5964 34.9894 34.4507 34.993V35Z">
	</symbol>
	<symbol id="category" viewBox="0 0 38 35">
		<path d="M35.8736 1.14789H14.937V33.8873H35.8455L35.8736 1.14789ZM14.4018 0H37.0074V35H13.8314V0H14.4018Z">
		<path d="M19.2186 3.64092C19.063 3.48452 18.8644 3.37791 18.648 3.33465C18.4317 3.29139 18.2074 3.31343 18.0036 3.39796C17.7998 3.4825 17.6257 3.62574 17.5035 3.80944C17.3813 3.99313 17.3164 4.20902 17.3172 4.42965C17.3172 4.72475 17.4344 5.00776 17.6431 5.21642C17.8518 5.42509 18.1348 5.54232 18.4299 5.54232C18.725 5.54232 19.008 5.42509 19.2167 5.21642C19.4253 5.00776 19.5426 4.72475 19.5426 4.42965C19.5413 4.13461 19.4251 3.85167 19.2186 3.64092ZM18.4581 2.1902C18.7524 2.18917 19.0439 2.24653 19.3159 2.35895C19.5879 2.47137 19.8349 2.63663 20.0426 2.84514C20.4628 3.26538 20.6989 3.83535 20.6989 4.42965C20.6989 5.02396 20.4628 5.59392 20.0426 6.01416C19.6223 6.43439 19.0524 6.67048 18.4581 6.67048C17.8638 6.67048 17.2938 6.43439 16.8736 6.01416C16.56 5.70096 16.3464 5.30175 16.2598 4.86708C16.1732 4.43242 16.2176 3.98183 16.3872 3.57239C16.5569 3.16294 16.8442 2.81303 17.2129 2.56698C17.5815 2.32094 18.0149 2.18981 18.4581 2.1902Z">
		<path d="M32.8102 3.64087C32.6025 3.43416 32.3216 3.31774 32.0285 3.31691C31.7335 3.31816 31.4505 3.43438 31.2398 3.64087C31.136 3.74412 31.0538 3.86708 30.9982 4.00253C30.9426 4.13798 30.9146 4.28318 30.9159 4.4296C30.9147 4.57496 30.9428 4.71906 30.9984 4.85334C31.0541 4.98763 31.1362 5.10934 31.2398 5.21128C31.3427 5.31607 31.4654 5.39932 31.6009 5.45615C31.7363 5.51298 31.8817 5.54225 32.0285 5.54227C32.2486 5.54165 32.4635 5.4758 32.6461 5.35306C32.8287 5.23031 32.9708 5.05619 33.0545 4.85268C33.1382 4.64917 33.1596 4.42542 33.1161 4.20972C33.0726 3.99403 32.9662 3.79607 32.8102 3.64087ZM32.0285 2.19015C32.4717 2.18976 32.9051 2.32089 33.2737 2.56693C33.6424 2.81298 33.9297 3.16289 34.0993 3.57234C34.269 3.98178 34.3134 4.43237 34.2268 4.86703C34.1402 5.3017 33.9266 5.70091 33.613 6.01411C33.1909 6.43137 32.622 6.6665 32.0285 6.66903C31.5766 6.68185 31.1315 6.55718 30.752 6.3115C30.3726 6.06583 30.0766 5.71074 29.9034 5.29321C29.7301 4.87567 29.6876 4.41536 29.7817 3.97319C29.8757 3.53102 30.1018 3.12782 30.4299 2.81692C30.6411 2.61114 30.8914 2.44969 31.1659 2.34205C31.4404 2.23441 31.7337 2.18275 32.0285 2.19015Z">
		<path d="M32.8103 16.7324C32.7083 16.6288 32.5866 16.5467 32.4523 16.491C32.318 16.4354 32.1739 16.4073 32.0286 16.4085C31.8821 16.4072 31.7369 16.4352 31.6015 16.4908C31.466 16.5464 31.3431 16.6286 31.2398 16.7324C31.1362 16.8343 31.0541 16.9561 30.9985 17.0903C30.9428 17.2246 30.9147 17.3687 30.9159 17.5141C30.9146 17.6605 30.9426 17.8057 30.9982 17.9412C31.0539 18.0766 31.136 18.1996 31.2398 18.3028C31.4506 18.5093 31.7335 18.6255 32.0286 18.6268C32.3216 18.626 32.6025 18.5095 32.8103 18.3028C32.9141 18.1996 32.9962 18.0766 33.0519 17.9412C33.1075 17.8057 33.1355 17.6605 33.1342 17.5141C33.1353 17.3687 33.1073 17.2246 33.0516 17.0903C32.996 16.9561 32.9139 16.8343 32.8103 16.7324ZM32.0286 15.2747C32.3226 15.2747 32.6139 15.3326 32.8856 15.4451C33.1573 15.5577 33.4041 15.7226 33.6121 15.9306C33.82 16.1385 33.985 16.3854 34.0975 16.6571C34.2101 16.9288 34.268 17.22 34.268 17.5141C34.268 18.108 34.0321 18.6776 33.6121 19.0976C33.1921 19.5176 32.6225 19.7535 32.0286 19.7535C31.5838 19.7573 31.1481 19.6282 30.7773 19.3828C30.4064 19.1373 30.1173 18.7866 29.947 18.3758C29.7768 17.9649 29.7332 17.5126 29.8217 17.0767C29.9103 16.6409 30.127 16.2414 30.4441 15.9296C30.6522 15.7217 30.8993 15.5569 31.1711 15.4445C31.443 15.3321 31.7344 15.2744 32.0286 15.2747Z">
		<path d="M32.8101 29.5139C32.6024 29.3072 32.3215 29.1908 32.0284 29.19C31.7334 29.1912 31.4504 29.3074 31.2397 29.5139C31.1358 29.6172 31.0537 29.7401 30.9981 29.8756C30.9424 30.011 30.9144 30.1562 30.9157 30.3027C30.9146 30.448 30.9427 30.5921 30.9983 30.7264C31.054 30.8607 31.136 30.9824 31.2397 31.0844C31.3426 31.1892 31.4653 31.2724 31.6007 31.3292C31.7362 31.386 31.8815 31.4153 32.0284 31.4153C32.2484 31.4147 32.4634 31.3489 32.646 31.2261C32.8286 31.1034 32.9707 30.9292 33.0544 30.7257C33.1381 30.5222 33.1595 30.2985 33.116 30.0828C33.0725 29.8671 32.9661 29.6691 32.8101 29.5139ZM32.0284 28.0632C32.4716 28.0628 32.905 28.194 33.2736 28.44C33.6422 28.6861 33.9296 29.036 34.0992 29.4454C34.2689 29.8548 34.3132 30.3054 34.2267 30.7401C34.1401 31.1748 33.9265 31.574 33.6129 31.8872C33.1908 32.3044 32.6219 32.5396 32.0284 32.5421C31.4338 32.5421 30.8635 32.3064 30.4424 31.8866C30.0213 31.4668 29.7838 30.8972 29.7819 30.3027C29.7838 29.7081 30.0213 29.1385 30.4424 28.7187C30.8635 28.2989 31.4338 28.0632 32.0284 28.0632Z">
		<path d="M19.2186 29.5139C19.063 29.3575 18.8644 29.2509 18.648 29.2077C18.4317 29.1644 18.2074 29.1865 18.0036 29.271C17.7998 29.3555 17.6257 29.4987 17.5035 29.6824C17.3813 29.8661 17.3164 30.082 17.3172 30.3027C17.3172 30.5978 17.4344 30.8808 17.6431 31.0894C17.8518 31.2981 18.1348 31.4153 18.4299 31.4153C18.725 31.4153 19.008 31.2981 19.2167 31.0894C19.4253 30.8808 19.5426 30.5978 19.5426 30.3027C19.5413 30.0076 19.4251 29.7247 19.2186 29.5139ZM18.4581 28.0632C19.052 28.0632 19.6216 28.2992 20.0416 28.7191C20.4616 29.1391 20.6975 29.7087 20.6975 30.3027C20.6979 30.7459 20.5667 31.1792 20.3207 31.5479C20.0747 31.9165 19.7248 32.2038 19.3153 32.3735C18.9059 32.5432 18.4553 32.5875 18.0206 32.5009C17.586 32.4144 17.1867 32.2008 16.8736 31.8872C16.56 31.574 16.3464 31.1748 16.2598 30.7401C16.1732 30.3054 16.2176 29.8548 16.3872 29.4454C16.5569 29.036 16.8442 28.6861 17.2129 28.44C17.5815 28.194 18.0149 28.0628 18.4581 28.0632Z">
		<path d="M5.91575 11.972C5.705 11.7655 5.42206 11.6493 5.12702 11.6481C4.84376 11.6562 4.57425 11.772 4.37349 11.972C4.26966 12.0753 4.18752 12.1982 4.13189 12.3337C4.07626 12.4691 4.04826 12.6143 4.04955 12.7608C4.05138 13.0541 4.16822 13.335 4.37497 13.5431C4.58173 13.7511 4.86187 13.8698 5.15517 13.8734C5.30203 13.8734 5.44743 13.8441 5.58285 13.7873C5.71827 13.7305 5.84102 13.6472 5.94392 13.5425C6.04755 13.4405 6.12962 13.3188 6.18527 13.1845C6.24092 13.0502 6.26901 12.9061 6.26786 12.7608C6.26915 12.6143 6.24116 12.4691 6.18553 12.3337C6.1299 12.1982 6.04776 12.0753 5.94392 11.972H5.91575ZM5.15517 10.5213C5.5999 10.5175 6.03564 10.6466 6.4065 10.8921C6.77736 11.1375 7.06646 11.4882 7.23671 11.8991C7.40695 12.3099 7.4506 12.7623 7.36204 13.1981C7.27349 13.634 7.05677 14.0334 6.73968 14.3453C6.53153 14.5531 6.28446 14.718 6.01259 14.8304C5.74071 14.9427 5.44936 15.0004 5.15517 15.0002C4.56124 15.0002 3.99163 14.7642 3.57165 14.3443C3.15168 13.9243 2.91574 13.3547 2.91574 12.7608C2.91574 12.1668 3.15168 11.5972 3.57165 11.1772C3.99163 10.7573 4.56124 10.5213 5.15517 10.5213Z">
		<path d="M5.91559 20.7888C5.81234 20.6849 5.68938 20.6028 5.55393 20.5472C5.41848 20.4915 5.27328 20.4636 5.12686 20.4648C4.9815 20.4637 4.8374 20.4918 4.70312 20.5474C4.56883 20.6031 4.44709 20.6852 4.34516 20.7888C4.24132 20.892 4.15918 21.015 4.10355 21.1504C4.04792 21.2859 4.01993 21.4311 4.02122 21.5775C4.02122 21.8708 4.1377 22.152 4.34505 22.3593C4.5524 22.5667 4.83363 22.6832 5.12686 22.6832C5.27328 22.6844 5.41848 22.6564 5.55393 22.6008C5.68938 22.5452 5.81234 22.463 5.91559 22.3592C6.01921 22.2573 6.10129 22.1355 6.15693 22.0013C6.21258 21.867 6.24067 21.7229 6.23953 21.5775C6.24082 21.4311 6.21282 21.2859 6.15719 21.1504C6.10156 21.015 6.01942 20.892 5.91559 20.7888ZM5.12686 19.3311C5.7 19.3632 6.2391 19.6135 6.63348 20.0306C7.02787 20.4477 7.24759 21 7.24759 21.574C7.24759 22.148 7.02787 22.7003 6.63348 23.1174C6.2391 23.5345 5.7 23.7848 5.12686 23.817C4.55372 23.7848 4.01462 23.5345 3.62024 23.1174C3.22585 22.7003 3.0061 22.148 3.0061 21.574C3.0061 21 3.22585 20.4477 3.62024 20.0306C4.01462 19.6135 4.55372 19.3632 5.12686 19.3311Z">
		<path d="M11.2748 23.4717V10.8309L6.08467 7.58438C5.3395 7.22427 4.51732 7.05258 3.69031 7.08438C3.16783 7.07375 2.64705 7.14746 2.14805 7.30269C1.7958 7.39785 1.48576 7.60868 1.26777 7.90129C1.17087 8.05488 1.12186 8.23384 1.12694 8.41538V25.8802C1.12214 26.0639 1.17108 26.245 1.26777 26.4013C1.48454 26.6937 1.79539 26.9026 2.14805 26.9928C2.64666 27.1504 3.16745 27.2265 3.69031 27.2182C4.51793 27.2481 5.34021 27.0739 6.08467 26.7111L11.2748 23.4717ZM12.4016 17.1337V24.0773L6.68327 27.6548C5.76072 28.1375 4.73131 28.3797 3.69031 28.359C3.04549 28.3679 2.40344 28.2728 1.78889 28.0773C1.1849 27.9066 0.660963 27.5273 0.310037 27.0069C0.10257 26.6732 -0.00496045 26.2871 0.000175762 25.8942V8.45058C-0.0018958 8.05811 0.105402 7.67283 0.310037 7.33792C0.665275 6.8217 1.18753 6.44366 1.78889 6.26748C3.41405 5.79334 5.15708 5.9363 6.68327 6.66889L12.4016 10.2393V17.1337Z">
		<path d="M16.2889 23.7816V10.2042L22.0143 6.63378C22.934 6.1502 23.9613 5.9079 25.0002 5.92956C25.6444 5.92194 26.2859 6.01459 26.9016 6.20419C27.503 6.38037 28.0252 6.75839 28.3805 7.27461C28.5851 7.60952 28.6924 7.99482 28.6903 8.3873V25.8521C28.6955 26.2449 28.5879 26.6311 28.3805 26.9648C28.0295 27.4852 27.5056 27.8644 26.9016 28.0352C26.2871 28.2306 25.645 28.3258 25.0002 28.3169C23.9613 28.3385 22.934 28.0962 22.0143 27.6126L16.2889 24.0352V23.7816ZM17.4157 17.1479V23.4859L22.6058 26.7253C23.3503 27.0881 24.1726 27.2623 25.0002 27.2324C25.5231 27.2407 26.0438 27.1646 26.5425 27.007C26.8961 26.919 27.2076 26.7096 27.4227 26.4155C27.5194 26.2592 27.5684 26.078 27.5636 25.8943V8.45067C27.5687 8.26914 27.5196 8.09018 27.4227 7.93658C27.2063 7.64234 26.8957 7.43111 26.5425 7.33801C26.0435 7.18278 25.5227 7.10904 25.0002 7.11968C24.1732 7.08788 23.351 7.25958 22.6058 7.61969L17.4157 10.8662V17.1479Z">
	</symbol>
</svg>
